0
SECTION
2
HEADER
9
$ACADVER
1
AC1008
9
$UCSORG
10
0.0
20
0.0
30
0.0
9
$UCSXDIR
10
1.0
20
0.0
30
0.0
9
$TILEMODE
70
1
9
$UCSYDIR
10
0.0
20
1.0
30
0.0
9
$EXTMIN
10
-80.880783
20
-80.249222
30
-2.105617
9
$EXTMAX
10
35.645210
20
75.667786
30
121.705132
0
ENDSEC
0
SECTION
2
TABLES
0
TABLE
2
LTYPE
70
1
0
LTYPE
2
CONTINUOUS
70
64
3
Solid line
72
65
73
0
40
0.0
0
ENDTAB
0
TABLE
2
LAYER
70
14
0
LAYER
2
BOX01
70
0
62
1
6
CONTINUOUS
0
LAYER
2
RECTANGLE0
70
0
62
2
6
CONTINUOUS
0
LAYER
2
RECTANGLE1
70
0
62
3
6
CONTINUOUS
0
LAYER
2
RECTANGLE2
70
0
62
4
6
CONTINUOUS
0
LAYER
2
RECTANGLE3
70
0
62
5
6
CONTINUOUS
0
LAYER
2
RECTANGLE4
70
0
62
6
6
CONTINUOUS
0
LAYER
2
RECTANGLE5
70
0
62
9
6
CONTINUOUS
0
LAYER
2
RECTANGLE6
70
0
62
10
6
CONTINUOUS
0
LAYER
2
RECTANGLE7
70
0
62
11
6
CONTINUOUS
0
LAYER
2
RECTANGLE8
70
0
62
12
6
CONTINUOUS
0
LAYER
2
RECTANGLE9
70
0
62
13
6
CONTINUOUS
0
LAYER
2
RECTANGL10
70
0
62
14
6
CONTINUOUS
0
LAYER
2
RECTANGL11
70
0
62
15
6
CONTINUOUS
0
LAYER
2
RECTANGL12
70
0
62
16
6
CONTINUOUS
0
LAYER
2
0
70
0
62
7
6
CONTINUOUS
0
ENDTAB
0
TABLE
2
STYLE
70
1
0
STYLE
2
STANDARD
70
0
40
0.0
41
1.0
50
0.0
71
0
42
0.2
3
txt
4

0
ENDTAB
0
TABLE
2
UCS
70
0
0
ENDTAB
0
ENDSEC
0
SECTION
2
ENTITIES
0
POLYLINE
8
BOX01
66
1
70
64
71
24
72
44
0
VERTEX
8
BOX01
10
-27.336386
20
10.167465
30
0.000000
70
192
0
VERTEX
8
BOX01
10
-27.336386
20
-10.539490
30
0.000000
70
192
0
VERTEX
8
BOX01
10
-7.433580
20
10.167465
30
0.000000
70
192
0
VERTEX
8
BOX01
10
-7.433580
20
-10.539490
30
0.000000
70
192
0
VERTEX
8
BOX01
10
-7.433580
20
-10.539490
30
46.347088
70
192
0
VERTEX
8
BOX01
10
-27.336386
20
-10.539490
30
46.347088
70
192
0
VERTEX
8
BOX01
10
-7.433580
20
10.167465
30
46.347088
70
192
0
VERTEX
8
BOX01
10
-27.336386
20
10.167465
30
46.347088
70
192
0
VERTEX
8
BOX01
10
-26.624765
20
-10.539490
30
0.951279
70
192
0
VERTEX
8
BOX01
10
-8.292583
20
-10.539490
30
0.951279
70
192
0
VERTEX
8
BOX01
10
-8.292583
20
-10.539490
30
29.786232
70
192
0
VERTEX
8
BOX01
10
-26.624765
20
-10.539490
30
29.786232
70
192
0
VERTEX
8
BOX01
10
-8.292583
20
8.500757
30
0.951279
70
192
0
VERTEX
8
BOX01
10
-26.624765
20
8.500757
30
0.951279
70
192
0
VERTEX
8
BOX01
10
-26.624765
20
8.500757
30
29.786232
70
192
0
VERTEX
8
BOX01
10
-8.292583
20
8.500757
30
29.786232
70
192
0
VERTEX
8
BOX01
10
-26.355194
20
-10.539490
30
45.523529
70
192
0
VERTEX
8
BOX01
10
-8.261742
20
-10.539490
30
31.523529
70
192
0
VERTEX
8
BOX01
10
-8.261742
20
-10.539490
30
45.523529
70
192
0
VERTEX
8
BOX01
10
-26.355194
20
-10.539490
30
31.523529
70
192
0
VERTEX
8
BOX01
10
-8.261742
20
8.465011
30
31.523529
70
192
0
VERTEX
8
BOX01
10
-26.355194
20
8.465011
30
31.523529
70
192
0
VERTEX
8
BOX01
10
-26.355194
20
8.465011
30
45.523529
70
192
0
VERTEX
8
BOX01
10
-8.261742
20
8.465011
30
45.523529
70
192
0
VERTEX
8
BOX01
10
0
20
0
30
0
70
128
71
2
72
1
73
-3
0
VERTEX
8
BOX01
10
0
20
0
30
0
70
128
71
3
72
4
73
-2
0
VERTEX
8
BOX01
10
0
20
0
30
0
70
128
71
6
72
5
73
-7
0
VERTEX
8
BOX01
10
0
20
0
30
0
70
128
71
7
72
8
73
-6
0
VERTEX
8
BOX01
10
0
20
0
30
0
70
128
71
4
72
3
73
-7
0
VERTEX
8
BOX01
10
0
20
0
30
0
70
128
71
7
72
5
73
-4
0
VERTEX
8
BOX01
10
0
20
0
30
0
70
128
71
3
72
1
73
-8
0
VERTEX
8
BOX01
10
0
20
0
30
0
70
128
71
8
72
7
73
-3
0
VERTEX
8
BOX01
10
0
20
0
30
0
70
128
71
1
72
2
73
-6
0
VERTEX
8
BOX01
10
0
20
0
30
0
70
128
71
6
72
8
73
-1
0
VERTEX
8
BOX01
10
0
20
0
30
0
70
128
71
2
72
-4
73
-9
0
VERTEX
8
BOX01
10
0
20
0
30
0
70
128
71
-2
72
-9
73
6
0
VERTEX
8
BOX01
10
0
20
0
30
0
70
128
71
4
72
-5
73
-10
0
VERTEX
8
BOX01
10
0
20
0
30
0
70
128
71
-10
72
-5
73
11
0
VERTEX
8
BOX01
10
0
20
0
30
0
70
128
71
10
72
-9
73
-4
0
VERTEX
8
BOX01
10
0
20
0
30
0
70
128
71
-6
72
9
73
-12
0
VERTEX
8
BOX01
10
0
20
0
30
0
70
128
71
14
72
-13
73
15
0
VERTEX
8
BOX01
10
0
20
0
30
0
70
128
71
-15
72
13
73
16
0
VERTEX
8
BOX01
10
0
20
0
30
0
70
128
71
14
72
-9
73
13
0
VERTEX
8
BOX01
10
0
20
0
30
0
70
128
71
-10
72
16
73
-13
0
VERTEX
8
BOX01
10
0
20
0
30
0
70
128
71
11
72
-16
73
10
0
VERTEX
8
BOX01
10
0
20
0
30
0
70
128
71
-13
72
9
73
10
0
VERTEX
8
BOX01
10
0
20
0
30
0
70
128
71
-9
72
14
73
-15
0
VERTEX
8
BOX01
10
0
20
0
30
0
70
128
71
15
72
12
73
-9
0
VERTEX
8
BOX01
10
0
20
0
30
0
70
128
71
12
72
15
73
-16
0
VERTEX
8
BOX01
10
0
20
0
30
0
70
128
71
-16
72
11
73
-12
0
VERTEX
8
BOX01
10
0
20
0
30
0
70
128
71
5
72
-6
73
-17
0
VERTEX
8
BOX01
10
0
20
0
30
0
70
128
71
-17
72
-6
73
-12
0
VERTEX
8
BOX01
10
0
20
0
30
0
70
128
71
-11
72
-5
73
-18
0
VERTEX
8
BOX01
10
0
20
0
30
0
70
128
71
-18
72
-5
73
19
0
VERTEX
8
BOX01
10
0
20
0
30
0
70
128
71
-11
72
-18
73
12
0
VERTEX
8
BOX01
10
0
20
0
30
0
70
128
71
17
72
-19
73
-5
0
VERTEX
8
BOX01
10
0
20
0
30
0
70
128
71
20
72
-17
73
-12
0
VERTEX
8
BOX01
10
0
20
0
30
0
70
128
71
18
72
-20
73
-12
0
VERTEX
8
BOX01
10
0
20
0
30
0
70
128
71
22
72
-21
73
23
0
VERTEX
8
BOX01
10
0
20
0
30
0
70
128
71
-23
72
21
73
24
0
VERTEX
8
BOX01
10
0
20
0
30
0
70
128
71
22
72
-23
73
-17
0
VERTEX
8
BOX01
10
0
20
0
30
0
70
128
71
17
72
23
73
-24
0
VERTEX
8
BOX01
10
0
20
0
30
0
70
128
71
-18
72
24
73
-21
0
VERTEX
8
BOX01
10
0
20
0
30
0
70
128
71
19
72
-24
73
18
0
VERTEX
8
BOX01
10
0
20
0
30
0
70
128
71
-24
72
19
73
-17
0
VERTEX
8
BOX01
10
0
20
0
30
0
70
128
71
22
72
-20
73
21
0
VERTEX
8
BOX01
10
0
20
0
30
0
70
128
71
-22
72
17
73
20
0
VERTEX
8
BOX01
10
0
20
0
30
0
70
128
71
-21
72
20
73
-18
0
SEQEND
8
BOX01
0
POLYLINE
8
RECTANGLE0
66
1
70
64
71
16
72
28
0
VERTEX
8
RECTANGLE0
10
-26.609222
20
8.858820
30
29.777967
70
192
0
VERTEX
8
RECTANGLE0
10
-8.310661
20
8.858820
30
29.777967
70
192
0
VERTEX
8
RECTANGLE0
10
-26.609222
20
-10.141183
30
29.777964
70
192
0
VERTEX
8
RECTANGLE0
10
-8.310661
20
-10.141183
30
29.777964
70
192
0
VERTEX
8
RECTANGLE0
10
-26.609222
20
8.858817
30
0.792680
70
192
0
VERTEX
8
RECTANGLE0
10
-26.609222
20
-10.141186
30
0.792681
70
192
0
VERTEX
8
RECTANGLE0
10
-8.310661
20
8.858817
30
0.792680
70
192
0
VERTEX
8
RECTANGLE0
10
-8.310661
20
-10.141186
30
0.792681
70
192
0
VERTEX
8
RECTANGLE0
10
-8.800798
20
-10.141183
30
28.844049
70
192
0
VERTEX
8
RECTANGLE0
10
-26.119080
20
-10.141186
30
1.411546
70
192
0
VERTEX
8
RECTANGLE0
10
-8.800798
20
-10.141186
30
1.411546
70
192
0
VERTEX
8
RECTANGLE0
10
-26.119080
20
-10.141183
30
28.844049
70
192
0
VERTEX
8
RECTANGLE0
10
-26.119080
20
7.554328
30
1.411545
70
192
0
VERTEX
8
RECTANGLE0
10
-8.800798
20
7.554330
30
28.844048
70
192
0
VERTEX
8
RECTANGLE0
10
-8.800798
20
7.554328
30
1.411545
70
192
0
VERTEX
8
RECTANGLE0
10
-26.119080
20
7.554330
30
28.844048
70
192
0
VERTEX
8
RECTANGLE0
10
0
20
0
30
0
70
128
71
2
72
1
73
-3
0
VERTEX
8
RECTANGLE0
10
0
20
0
30
0
70
128
71
-2
72
3
73
4
0
VERTEX
8
RECTANGLE0
10
0
20
0
30
0
70
128
71
1
72
5
73
-6
0
VERTEX
8
RECTANGLE0
10
0
20
0
30
0
70
128
71
-1
72
6
73
3
0
VERTEX
8
RECTANGLE0
10
0
20
0
30
0
70
128
71
5
72
7
73
-8
0
VERTEX
8
RECTANGLE0
10
0
20
0
30
0
70
128
71
-5
72
8
73
6
0
VERTEX
8
RECTANGLE0
10
0
20
0
30
0
70
128
71
7
72
2
73
-4
0
VERTEX
8
RECTANGLE0
10
0
20
0
30
0
70
128
71
-7
72
4
73
8
0
VERTEX
8
RECTANGLE0
10
0
20
0
30
0
70
128
71
-5
72
2
73
7
0
VERTEX
8
RECTANGLE0
10
0
20
0
30
0
70
128
71
1
72
-2
73
5
0
VERTEX
8
RECTANGLE0
10
0
20
0
30
0
70
128
71
8
72
-4
73
-9
0
VERTEX
8
RECTANGLE0
10
0
20
0
30
0
70
128
71
-9
72
4
73
-3
0
VERTEX
8
RECTANGLE0
10
0
20
0
30
0
70
128
71
-6
72
-10
73
3
0
VERTEX
8
RECTANGLE0
10
0
20
0
30
0
70
128
71
6
72
-8
73
-10
0
VERTEX
8
RECTANGLE0
10
0
20
0
30
0
70
128
71
-8
72
11
73
-10
0
VERTEX
8
RECTANGLE0
10
0
20
0
30
0
70
128
71
9
72
-11
73
-8
0
VERTEX
8
RECTANGLE0
10
0
20
0
30
0
70
128
71
12
72
-9
73
-3
0
VERTEX
8
RECTANGLE0
10
0
20
0
30
0
70
128
71
10
72
-12
73
-3
0
VERTEX
8
RECTANGLE0
10
0
20
0
30
0
70
128
71
-14
72
13
73
15
0
VERTEX
8
RECTANGLE0
10
0
20
0
30
0
70
128
71
14
72
16
73
-13
0
VERTEX
8
RECTANGLE0
10
0
20
0
30
0
70
128
71
9
72
14
73
-15
0
VERTEX
8
RECTANGLE0
10
0
20
0
30
0
70
128
71
13
72
-16
73
-10
0
VERTEX
8
RECTANGLE0
10
0
20
0
30
0
70
128
71
11
72
15
73
-13
0
VERTEX
8
RECTANGLE0
10
0
20
0
30
0
70
128
71
10
72
-11
73
13
0
VERTEX
8
RECTANGLE0
10
0
20
0
30
0
70
128
71
-15
72
11
73
-9
0
VERTEX
8
RECTANGLE0
10
0
20
0
30
0
70
128
71
12
72
16
73
-14
0
VERTEX
8
RECTANGLE0
10
0
20
0
30
0
70
128
71
-14
72
9
73
-12
0
VERTEX
8
RECTANGLE0
10
0
20
0
30
0
70
128
71
-16
72
12
73
-10
0
SEQEND
8
RECTANGLE0
0
POLYLINE
8
RECTANGLE1
66
1
70
64
71
16
72
28
0
VERTEX
8
RECTANGLE1
10
-26.289551
20
8.824066
30
31.410397
70
192
0
VERTEX
8
RECTANGLE1
10
-8.318245
20
8.824066
30
31.410397
70
192
0
VERTEX
8
RECTANGLE1
10
-26.289551
20
8.824066
30
45.410397
70
192
0
VERTEX
8
RECTANGLE1
10
-8.318245
20
8.824066
30
45.410397
70
192
0
VERTEX
8
RECTANGLE1
10
-26.289551
20
-10.107973
30
31.410397
70
192
0
VERTEX
8
RECTANGLE1
10
-26.289551
20
-10.107973
30
45.410397
70
192
0
VERTEX
8
RECTANGLE1
10
-8.318245
20
-10.107973
30
31.410397
70
192
0
VERTEX
8
RECTANGLE1
10
-8.318245
20
-10.107973
30
45.410397
70
192
0
VERTEX
8
RECTANGLE1
10
-8.829677
20
-10.107973
30
44.515915
70
192
0
VERTEX
8
RECTANGLE1
10
-8.829677
20
-10.107973
30
32.378555
70
192
0
VERTEX
8
RECTANGLE1
10
-25.829678
20
-10.107973
30
44.515915
70
192
0
VERTEX
8
RECTANGLE1
10
-25.829678
20
-10.107973
30
32.378555
70
192
0
VERTEX
8
RECTANGLE1
10
-8.829677
20
7.662207
30
44.515915
70
192
0
VERTEX
8
RECTANGLE1
10
-8.829677
20
7.662207
30
32.378555
70
192
0
VERTEX
8
RECTANGLE1
10
-25.829678
20
7.662207
30
32.378555
70
192
0
VERTEX
8
RECTANGLE1
10
-25.829678
20
7.662207
30
44.515915
70
192
0
VERTEX
8
RECTANGLE1
10
0
20
0
30
0
70
128
71
2
72
1
73
-3
0
VERTEX
8
RECTANGLE1
10
0
20
0
30
0
70
128
71
-2
72
3
73
4
0
VERTEX
8
RECTANGLE1
10
0
20
0
30
0
70
128
71
1
72
5
73
-6
0
VERTEX
8
RECTANGLE1
10
0
20
0
30
0
70
128
71
-1
72
6
73
3
0
VERTEX
8
RECTANGLE1
10
0
20
0
30
0
70
128
71
7
72
2
73
-4
0
VERTEX
8
RECTANGLE1
10
0
20
0
30
0
70
128
71
-7
72
4
73
8
0
VERTEX
8
RECTANGLE1
10
0
20
0
30
0
70
128
71
-5
72
2
73
7
0
VERTEX
8
RECTANGLE1
10
0
20
0
30
0
70
128
71
1
72
-2
73
5
0
VERTEX
8
RECTANGLE1
10
0
20
0
30
0
70
128
71
6
72
8
73
-4
0
VERTEX
8
RECTANGLE1
10
0
20
0
30
0
70
128
71
3
72
-6
73
4
0
VERTEX
8
RECTANGLE1
10
0
20
0
30
0
70
128
71
7
72
-8
73
-9
0
VERTEX
8
RECTANGLE1
10
0
20
0
30
0
70
128
71
-9
72
8
73
-6
0
VERTEX
8
RECTANGLE1
10
0
20
0
30
0
70
128
71
5
72
-7
73
-10
0
VERTEX
8
RECTANGLE1
10
0
20
0
30
0
70
128
71
9
72
-10
73
-7
0
VERTEX
8
RECTANGLE1
10
0
20
0
30
0
70
128
71
-9
72
-6
73
11
0
VERTEX
8
RECTANGLE1
10
0
20
0
30
0
70
128
71
-5
72
10
73
-12
0
VERTEX
8
RECTANGLE1
10
0
20
0
30
0
70
128
71
6
72
-5
73
-12
0
VERTEX
8
RECTANGLE1
10
0
20
0
30
0
70
128
71
12
72
-11
73
-6
0
VERTEX
8
RECTANGLE1
10
0
20
0
30
0
70
128
71
14
72
-13
73
15
0
VERTEX
8
RECTANGLE1
10
0
20
0
30
0
70
128
71
-15
72
13
73
16
0
VERTEX
8
RECTANGLE1
10
0
20
0
30
0
70
128
71
16
72
-13
73
-9
0
VERTEX
8
RECTANGLE1
10
0
20
0
30
0
70
128
71
9
72
13
73
-14
0
VERTEX
8
RECTANGLE1
10
0
20
0
30
0
70
128
71
-10
72
14
73
-15
0
VERTEX
8
RECTANGLE1
10
0
20
0
30
0
70
128
71
-14
72
10
73
-9
0
VERTEX
8
RECTANGLE1
10
0
20
0
30
0
70
128
71
11
72
-16
73
9
0
VERTEX
8
RECTANGLE1
10
0
20
0
30
0
70
128
71
16
72
-11
73
15
0
VERTEX
8
RECTANGLE1
10
0
20
0
30
0
70
128
71
15
72
12
73
-10
0
VERTEX
8
RECTANGLE1
10
0
20
0
30
0
70
128
71
-15
72
11
73
-12
0
SEQEND
8
RECTANGLE1
0
POLYLINE
8
RECTANGLE2
66
1
70
64
71
23
72
12
0
VERTEX
8
RECTANGLE2
10
-8.287823
20
8.375002
30
11.866348
70
192
0
VERTEX
8
RECTANGLE2
10
-26.279999
20
8.375002
30
11.866348
70
192
0
VERTEX
8
RECTANGLE2
10
-26.279999
20
-8.938223
30
11.866348
70
192
0
VERTEX
8
RECTANGLE2
10
-8.287823
20
-8.938223
30
11.866348
70
192
0
VERTEX
8
RECTANGLE2
10
-8.287823
20
8.375002
30
12.366348
70
192
0
VERTEX
8
RECTANGLE2
10
-26.279999
20
8.375002
30
12.366348
70
192
0
VERTEX
8
RECTANGLE2
10
-26.279999
20
-8.938223
30
12.366348
70
192
0
VERTEX
8
RECTANGLE2
10
-8.287823
20
-8.938223
30
12.366348
70
192
0
VERTEX
8
RECTANGLE2
10
-8.287823
20
8.375002
30
11.866348
70
192
0
VERTEX
8
RECTANGLE2
10
-8.287823
20
8.375002
30
12.366348
70
192
0
VERTEX
8
RECTANGLE2
10
-8.287823
20
8.375002
30
12.366348
70
192
0
VERTEX
8
RECTANGLE2
10
-26.279999
20
-8.938223
30
11.866348
70
192
0
VERTEX
8
RECTANGLE2
10
-8.287823
20
8.375002
30
11.866348
70
192
0
VERTEX
8
RECTANGLE2
10
-8.287823
20
-8.938223
30
11.866348
70
192
0
VERTEX
8
RECTANGLE2
10
-26.279999
20
-8.938223
30
11.866348
70
192
0
VERTEX
8
RECTANGLE2
10
-26.279999
20
8.375002
30
11.866348
70
192
0
VERTEX
8
RECTANGLE2
10
-8.287823
20
8.375002
30
11.866348
70
192
0
VERTEX
8
RECTANGLE2
10
-26.279999
20
-8.938223
30
12.366348
70
192
0
VERTEX
8
RECTANGLE2
10
-8.287823
20
-8.938223
30
12.366348
70
192
0
VERTEX
8
RECTANGLE2
10
-8.287823
20
8.375002
30
12.366348
70
192
0
VERTEX
8
RECTANGLE2
10
-26.279999
20
-8.938223
30
12.366348
70
192
0
VERTEX
8
RECTANGLE2
10
-8.287823
20
8.375002
30
12.366348
70
192
0
VERTEX
8
RECTANGLE2
10
-26.279999
20
8.375002
30
12.366348
70
192
0
VERTEX
8
RECTANGLE2
10
0
20
0
30
0
70
128
71
-1
72
2
73
6
0
VERTEX
8
RECTANGLE2
10
0
20
0
30
0
70
128
71
1
72
6
73
-5
0
VERTEX
8
RECTANGLE2
10
0
20
0
30
0
70
128
71
-2
72
3
73
7
0
VERTEX
8
RECTANGLE2
10
0
20
0
30
0
70
128
71
2
72
7
73
-6
0
VERTEX
8
RECTANGLE2
10
0
20
0
30
0
70
128
71
-3
72
4
73
8
0
VERTEX
8
RECTANGLE2
10
0
20
0
30
0
70
128
71
3
72
8
73
-7
0
VERTEX
8
RECTANGLE2
10
0
20
0
30
0
70
128
71
-4
72
9
73
10
0
VERTEX
8
RECTANGLE2
10
0
20
0
30
0
70
128
71
4
72
11
73
-8
0
VERTEX
8
RECTANGLE2
10
0
20
0
30
0
70
128
71
12
72
13
73
-14
0
VERTEX
8
RECTANGLE2
10
0
20
0
30
0
70
128
71
-15
72
16
73
17
0
VERTEX
8
RECTANGLE2
10
0
20
0
30
0
70
128
71
-18
72
19
73
20
0
VERTEX
8
RECTANGLE2
10
0
20
0
30
0
70
128
71
21
72
22
73
-23
0
SEQEND
8
RECTANGLE2
0
POLYLINE
8
RECTANGLE3
66
1
70
64
71
8
72
12
0
VERTEX
8
RECTANGLE3
10
-8.287823
20
8.375002
30
22.761824
70
192
0
VERTEX
8
RECTANGLE3
10
-26.279999
20
8.375002
30
22.761824
70
192
0
VERTEX
8
RECTANGLE3
10
-26.279999
20
-8.938223
30
22.761824
70
192
0
VERTEX
8
RECTANGLE3
10
-8.287823
20
-8.938223
30
22.761824
70
192
0
VERTEX
8
RECTANGLE3
10
-8.287823
20
8.375002
30
23.261824
70
192
0
VERTEX
8
RECTANGLE3
10
-26.279999
20
8.375002
30
23.261824
70
192
0
VERTEX
8
RECTANGLE3
10
-26.279999
20
-8.938223
30
23.261824
70
192
0
VERTEX
8
RECTANGLE3
10
-8.287823
20
-8.938223
30
23.261824
70
192
0
VERTEX
8
RECTANGLE3
10
0
20
0
30
0
70
128
71
1
72
2
73
-6
0
VERTEX
8
RECTANGLE3
10
0
20
0
30
0
70
128
71
-1
72
6
73
5
0
VERTEX
8
RECTANGLE3
10
0
20
0
30
0
70
128
71
2
72
3
73
-7
0
VERTEX
8
RECTANGLE3
10
0
20
0
30
0
70
128
71
-2
72
7
73
6
0
VERTEX
8
RECTANGLE3
10
0
20
0
30
0
70
128
71
3
72
4
73
-8
0
VERTEX
8
RECTANGLE3
10
0
20
0
30
0
70
128
71
-3
72
8
73
7
0
VERTEX
8
RECTANGLE3
10
0
20
0
30
0
70
128
71
4
72
1
73
-5
0
VERTEX
8
RECTANGLE3
10
0
20
0
30
0
70
128
71
-4
72
5
73
8
0
VERTEX
8
RECTANGLE3
10
0
20
0
30
0
70
128
71
-3
72
1
73
4
0
VERTEX
8
RECTANGLE3
10
0
20
0
30
0
70
128
71
3
72
2
73
-1
0
VERTEX
8
RECTANGLE3
10
0
20
0
30
0
70
128
71
7
72
8
73
-5
0
VERTEX
8
RECTANGLE3
10
0
20
0
30
0
70
128
71
-7
72
5
73
6
0
SEQEND
8
RECTANGLE3
0
POLYLINE
8
RECTANGLE4
66
1
70
64
71
8
72
12
0
VERTEX
8
RECTANGLE4
10
-8.287823
20
8.375002
30
17.210081
70
192
0
VERTEX
8
RECTANGLE4
10
-26.279999
20
8.375002
30
17.210081
70
192
0
VERTEX
8
RECTANGLE4
10
-26.279999
20
-8.938223
30
17.210081
70
192
0
VERTEX
8
RECTANGLE4
10
-8.287823
20
-8.938223
30
17.210081
70
192
0
VERTEX
8
RECTANGLE4
10
-8.287823
20
8.375002
30
17.710081
70
192
0
VERTEX
8
RECTANGLE4
10
-26.279999
20
8.375002
30
17.710081
70
192
0
VERTEX
8
RECTANGLE4
10
-26.279999
20
-8.938223
30
17.710081
70
192
0
VERTEX
8
RECTANGLE4
10
-8.287823
20
-8.938223
30
17.710081
70
192
0
VERTEX
8
RECTANGLE4
10
0
20
0
30
0
70
128
71
1
72
2
73
-6
0
VERTEX
8
RECTANGLE4
10
0
20
0
30
0
70
128
71
-1
72
6
73
5
0
VERTEX
8
RECTANGLE4
10
0
20
0
30
0
70
128
71
2
72
3
73
-7
0
VERTEX
8
RECTANGLE4
10
0
20
0
30
0
70
128
71
-2
72
7
73
6
0
VERTEX
8
RECTANGLE4
10
0
20
0
30
0
70
128
71
3
72
4
73
-8
0
VERTEX
8
RECTANGLE4
10
0
20
0
30
0
70
128
71
-3
72
8
73
7
0
VERTEX
8
RECTANGLE4
10
0
20
0
30
0
70
128
71
4
72
1
73
-5
0
VERTEX
8
RECTANGLE4
10
0
20
0
30
0
70
128
71
-4
72
5
73
8
0
VERTEX
8
RECTANGLE4
10
0
20
0
30
0
70
128
71
-3
72
1
73
4
0
VERTEX
8
RECTANGLE4
10
0
20
0
30
0
70
128
71
3
72
2
73
-1
0
VERTEX
8
RECTANGLE4
10
0
20
0
30
0
70
128
71
7
72
8
73
-5
0
VERTEX
8
RECTANGLE4
10
0
20
0
30
0
70
128
71
-7
72
5
73
6
0
SEQEND
8
RECTANGLE4
0
POLYLINE
8
RECTANGLE5
66
1
70
64
71
68
72
132
0
VERTEX
8
RECTANGLE5
10
-27.288893
20
-10.808638
30
46.595665
70
192
0
VERTEX
8
RECTANGLE5
10
-27.288893
20
-10.808638
30
31.570951
70
192
0
VERTEX
8
RECTANGLE5
10
-7.698576
20
-10.808638
30
31.570951
70
192
0
VERTEX
8
RECTANGLE5
10
-7.698576
20
-10.808638
30
46.595665
70
192
0
VERTEX
8
RECTANGLE5
10
-7.698576
20
-12.302814
30
31.570951
70
192
0
VERTEX
8
RECTANGLE5
10
-27.288893
20
-12.302814
30
46.595665
70
192
0
VERTEX
8
RECTANGLE5
10
-27.288893
20
-12.302814
30
31.570951
70
192
0
VERTEX
8
RECTANGLE5
10
-27.111473
20
-12.498842
30
46.595665
70
192
0
VERTEX
8
RECTANGLE5
10
-27.111473
20
-12.498842
30
31.570951
70
192
0
VERTEX
8
RECTANGLE5
10
-26.772358
20
-12.684674
30
46.595665
70
192
0
VERTEX
8
RECTANGLE5
10
-7.698576
20
-12.302814
30
46.595665
70
192
0
VERTEX
8
RECTANGLE5
10
-7.890444
20
-12.450736
30
31.570951
70
192
0
VERTEX
8
RECTANGLE5
10
-7.890444
20
-12.450736
30
46.595665
70
192
0
VERTEX
8
RECTANGLE5
10
-26.109848
20
-12.850117
30
46.595665
70
192
0
VERTEX
8
RECTANGLE5
10
-24.962257
20
-12.984973
30
46.595665
70
192
0
VERTEX
8
RECTANGLE5
10
-23.167887
20
-13.079049
30
46.595665
70
192
0
VERTEX
8
RECTANGLE5
10
-20.565041
20
-13.122149
30
46.595665
70
192
0
VERTEX
8
RECTANGLE5
10
-13.818766
20
-13.043978
30
46.595665
70
192
0
VERTEX
8
RECTANGLE5
10
-11.497334
20
-12.958785
30
46.595665
70
192
0
VERTEX
8
RECTANGLE5
10
-9.885757
20
-12.852682
30
46.595665
70
192
0
VERTEX
8
RECTANGLE5
10
-8.842064
20
-12.729853
30
46.595665
70
192
0
VERTEX
8
RECTANGLE5
10
-8.224283
20
-12.594477
30
46.595665
70
192
0
VERTEX
8
RECTANGLE5
10
-24.747753
20
-11.513168
30
31.570951
70
192
0
VERTEX
8
RECTANGLE5
10
-25.395504
20
-11.598446
30
31.570951
70
192
0
VERTEX
8
RECTANGLE5
10
-25.999111
20
-11.848469
30
31.570951
70
192
0
VERTEX
8
RECTANGLE5
10
-26.517441
20
-12.246198
30
31.570951
70
192
0
VERTEX
8
RECTANGLE5
10
-26.829760
20
-12.653218
30
31.570951
70
192
0
VERTEX
8
RECTANGLE5
10
-10.179792
20
-11.513168
30
31.570951
70
192
0
VERTEX
8
RECTANGLE5
10
-9.532042
20
-11.598446
30
31.570951
70
192
0
VERTEX
8
RECTANGLE5
10
-8.928433
20
-11.848469
30
31.570951
70
192
0
VERTEX
8
RECTANGLE5
10
-8.410104
20
-12.246198
30
31.570951
70
192
0
VERTEX
8
RECTANGLE5
10
-8.163081
20
-12.568125
30
31.570951
70
192
0
VERTEX
8
RECTANGLE5
10
-26.772358
20
-12.684674
30
31.967537
70
192
0
VERTEX
8
RECTANGLE5
10
-26.517441
20
-12.748332
30
32.501255
70
192
0
VERTEX
8
RECTANGLE5
10
-26.109848
20
-12.850117
30
33.030273
70
192
0
VERTEX
8
RECTANGLE5
10
-26.768042
20
-12.685752
30
31.992546
70
192
0
VERTEX
8
RECTANGLE5
10
-24.962257
20
-12.984973
30
33.490776
70
192
0
VERTEX
8
RECTANGLE5
10
-25.395504
20
-12.934061
30
33.420097
70
192
0
VERTEX
8
RECTANGLE5
10
-25.999111
20
-12.863130
30
33.151070
70
192
0
VERTEX
8
RECTANGLE5
10
-26.021709
20
-12.860474
30
33.133018
70
192
0
VERTEX
8
RECTANGLE5
10
-23.167887
20
-13.079049
30
33.544224
70
192
0
VERTEX
8
RECTANGLE5
10
-24.747753
20
-12.996220
30
33.522030
70
192
0
VERTEX
8
RECTANGLE5
10
-20.565041
20
-13.122149
30
33.555775
70
192
0
VERTEX
8
RECTANGLE5
10
-16.574295
20
-13.096168
30
33.548813
70
192
0
VERTEX
8
RECTANGLE5
10
-13.818766
20
-13.043978
30
33.534828
70
192
0
VERTEX
8
RECTANGLE5
10
-11.497334
20
-12.958785
30
33.512001
70
192
0
VERTEX
8
RECTANGLE5
10
-10.179792
20
-12.872041
30
33.488758
70
192
0
VERTEX
8
RECTANGLE5
10
-9.885757
20
-12.852682
30
33.444859
70
192
0
VERTEX
8
RECTANGLE5
10
-8.842064
20
-12.729853
30
32.935551
70
192
0
VERTEX
8
RECTANGLE5
10
-8.928433
20
-12.740017
30
33.036247
70
192
0
VERTEX
8
RECTANGLE5
10
-9.272614
20
-12.780523
30
33.271500
70
192
0
VERTEX
8
RECTANGLE5
10
-9.532042
20
-12.811054
30
33.387138
70
192
0
VERTEX
8
RECTANGLE5
10
-8.224283
20
-12.594477
30
31.966969
70
192
0
VERTEX
8
RECTANGLE5
10
-8.237761
20
-12.597429
30
32.043537
70
192
0
VERTEX
8
RECTANGLE5
10
-8.410104
20
-12.635196
30
32.388119
70
192
0
VERTEX
8
RECTANGLE5
10
-8.928433
20
-12.058475
30
32.354706
70
192
0
VERTEX
8
RECTANGLE5
10
-9.532042
20
-11.841949
30
32.479717
70
192
0
VERTEX
8
RECTANGLE5
10
-9.532042
20
-12.726793
30
33.364559
70
192
0
VERTEX
8
RECTANGLE5
10
-10.179792
20
-11.768096
30
32.522354
70
192
0
VERTEX
8
RECTANGLE5
10
-10.179792
20
-12.684155
30
33.438412
70
192
0
VERTEX
8
RECTANGLE5
10
-24.747753
20
-11.768096
30
32.522354
70
192
0
VERTEX
8
RECTANGLE5
10
-24.747753
20
-12.684155
30
33.438412
70
192
0
VERTEX
8
RECTANGLE5
10
-25.395504
20
-11.841949
30
32.479717
70
192
0
VERTEX
8
RECTANGLE5
10
-25.395504
20
-12.726793
30
33.364559
70
192
0
VERTEX
8
RECTANGLE5
10
-25.999111
20
-12.058475
30
32.354706
70
192
0
VERTEX
8
RECTANGLE5
10
-25.999111
20
-12.851805
30
33.148033
70
192
0
VERTEX
8
RECTANGLE5
10
-26.517441
20
-12.402918
30
32.155842
70
192
0
VERTEX
8
RECTANGLE5
10
-8.410104
20
-12.402918
30
32.155842
70
192
0
VERTEX
8
RECTANGLE5
10
0
20
0
30
0
70
128
71
2
72
-1
73
3
0
VERTEX
8
RECTANGLE5
10
0
20
0
30
0
70
128
71
4
72
-3
73
1
0
VERTEX
8
RECTANGLE5
10
0
20
0
30
0
70
128
71
3
72
-4
73
5
0
VERTEX
8
RECTANGLE5
10
0
20
0
30
0
70
128
71
7
72
-6
73
2
0
VERTEX
8
RECTANGLE5
10
0
20
0
30
0
70
128
71
-2
72
6
73
1
0
VERTEX
8
RECTANGLE5
10
0
20
0
30
0
70
128
71
9
72
-8
73
7
0
VERTEX
8
RECTANGLE5
10
0
20
0
30
0
70
128
71
-7
72
8
73
6
0
VERTEX
8
RECTANGLE5
10
0
20
0
30
0
70
128
71
-9
72
10
73
8
0
VERTEX
8
RECTANGLE5
10
0
20
0
30
0
70
128
71
5
72
-11
73
12
0
VERTEX
8
RECTANGLE5
10
0
20
0
30
0
70
128
71
-12
72
11
73
13
0
VERTEX
8
RECTANGLE5
10
0
20
0
30
0
70
128
71
-5
72
4
73
11
0
VERTEX
8
RECTANGLE5
10
0
20
0
30
0
70
128
71
6
72
-8
73
-1
0
VERTEX
8
RECTANGLE5
10
0
20
0
30
0
70
128
71
8
72
-10
73
-1
0
VERTEX
8
RECTANGLE5
10
0
20
0
30
0
70
128
71
10
72
-14
73
-1
0
VERTEX
8
RECTANGLE5
10
0
20
0
30
0
70
128
71
14
72
-15
73
-1
0
VERTEX
8
RECTANGLE5
10
0
20
0
30
0
70
128
71
15
72
-16
73
-1
0
VERTEX
8
RECTANGLE5
10
0
20
0
30
0
70
128
71
16
72
-17
73
-1
0
VERTEX
8
RECTANGLE5
10
0
20
0
30
0
70
128
71
4
72
-1
73
-18
0
VERTEX
8
RECTANGLE5
10
0
20
0
30
0
70
128
71
-1
72
17
73
-18
0
VERTEX
8
RECTANGLE5
10
0
20
0
30
0
70
128
71
18
72
-19
73
-4
0
VERTEX
8
RECTANGLE5
10
0
20
0
30
0
70
128
71
-4
72
19
73
-20
0
VERTEX
8
RECTANGLE5
10
0
20
0
30
0
70
128
71
20
72
-21
73
-4
0
VERTEX
8
RECTANGLE5
10
0
20
0
30
0
70
128
71
21
72
-22
73
-4
0
VERTEX
8
RECTANGLE5
10
0
20
0
30
0
70
128
71
22
72
-13
73
-4
0
VERTEX
8
RECTANGLE5
10
0
20
0
30
0
70
128
71
13
72
-11
73
-4
0
VERTEX
8
RECTANGLE5
10
0
20
0
30
0
70
128
71
2
72
-3
73
-23
0
VERTEX
8
RECTANGLE5
10
0
20
0
30
0
70
128
71
7
72
-2
73
-24
0
VERTEX
8
RECTANGLE5
10
0
20
0
30
0
70
128
71
-2
72
23
73
-24
0
VERTEX
8
RECTANGLE5
10
0
20
0
30
0
70
128
71
-7
72
24
73
-25
0
VERTEX
8
RECTANGLE5
10
0
20
0
30
0
70
128
71
-7
72
-25
73
9
0
VERTEX
8
RECTANGLE5
10
0
20
0
30
0
70
128
71
-9
72
25
73
-26
0
VERTEX
8
RECTANGLE5
10
0
20
0
30
0
70
128
71
27
72
-9
73
26
0
VERTEX
8
RECTANGLE5
10
0
20
0
30
0
70
128
71
9
72
-27
73
-10
0
VERTEX
8
RECTANGLE5
10
0
20
0
30
0
70
128
71
-23
72
-3
73
28
0
VERTEX
8
RECTANGLE5
10
0
20
0
30
0
70
128
71
29
72
-28
73
-3
0
VERTEX
8
RECTANGLE5
10
0
20
0
30
0
70
128
71
30
72
-29
73
-3
0
VERTEX
8
RECTANGLE5
10
0
20
0
30
0
70
128
71
-30
72
3
73
-5
0
VERTEX
8
RECTANGLE5
10
0
20
0
30
0
70
128
71
-30
72
-5
73
31
0
VERTEX
8
RECTANGLE5
10
0
20
0
30
0
70
128
71
-31
72
5
73
-12
0
VERTEX
8
RECTANGLE5
10
0
20
0
30
0
70
128
71
12
72
32
73
-31
0
VERTEX
8
RECTANGLE5
10
0
20
0
30
0
70
128
71
32
72
12
73
-13
0
VERTEX
8
RECTANGLE5
10
0
20
0
30
0
70
128
71
27
72
-33
73
-10
0
VERTEX
8
RECTANGLE5
10
0
20
0
30
0
70
128
71
10
72
-33
73
14
0
VERTEX
8
RECTANGLE5
10
0
20
0
30
0
70
128
71
35
72
-14
73
34
0
VERTEX
8
RECTANGLE5
10
0
20
0
30
0
70
128
71
14
72
-35
73
15
0
VERTEX
8
RECTANGLE5
10
0
20
0
30
0
70
128
71
-34
72
-14
73
36
0
VERTEX
8
RECTANGLE5
10
0
20
0
30
0
70
128
71
-14
72
33
73
-36
0
VERTEX
8
RECTANGLE5
10
0
20
0
30
0
70
128
71
37
72
-15
73
38
0
VERTEX
8
RECTANGLE5
10
0
20
0
30
0
70
128
71
15
72
-37
73
16
0
VERTEX
8
RECTANGLE5
10
0
20
0
30
0
70
128
71
-38
72
-15
73
39
0
VERTEX
8
RECTANGLE5
10
0
20
0
30
0
70
128
71
-15
72
35
73
-40
0
VERTEX
8
RECTANGLE5
10
0
20
0
30
0
70
128
71
40
72
-39
73
-15
0
VERTEX
8
RECTANGLE5
10
0
20
0
30
0
70
128
71
16
72
-41
73
17
0
VERTEX
8
RECTANGLE5
10
0
20
0
30
0
70
128
71
-41
72
-16
73
42
0
VERTEX
8
RECTANGLE5
10
0
20
0
30
0
70
128
71
37
72
-42
73
-16
0
VERTEX
8
RECTANGLE5
10
0
20
0
30
0
70
128
71
43
72
-17
73
41
0
VERTEX
8
RECTANGLE5
10
0
20
0
30
0
70
128
71
-17
72
-43
73
18
0
VERTEX
8
RECTANGLE5
10
0
20
0
30
0
70
128
71
-44
72
-18
73
43
0
VERTEX
8
RECTANGLE5
10
0
20
0
30
0
70
128
71
45
72
-18
73
44
0
VERTEX
8
RECTANGLE5
10
0
20
0
30
0
70
128
71
18
72
-45
73
19
0
VERTEX
8
RECTANGLE5
10
0
20
0
30
0
70
128
71
46
72
-19
73
45
0
VERTEX
8
RECTANGLE5
10
0
20
0
30
0
70
128
71
-19
72
46
73
-47
0
VERTEX
8
RECTANGLE5
10
0
20
0
30
0
70
128
71
-19
72
-47
73
20
0
VERTEX
8
RECTANGLE5
10
0
20
0
30
0
70
128
71
48
72
-20
73
47
0
VERTEX
8
RECTANGLE5
10
0
20
0
30
0
70
128
71
20
72
-48
73
21
0
VERTEX
8
RECTANGLE5
10
0
20
0
30
0
70
128
71
49
72
-21
73
50
0
VERTEX
8
RECTANGLE5
10
0
20
0
30
0
70
128
71
21
72
-49
73
22
0
VERTEX
8
RECTANGLE5
10
0
20
0
30
0
70
128
71
-50
72
-21
73
51
0
VERTEX
8
RECTANGLE5
10
0
20
0
30
0
70
128
71
-51
72
-21
73
52
0
VERTEX
8
RECTANGLE5
10
0
20
0
30
0
70
128
71
-52
72
-21
73
48
0
VERTEX
8
RECTANGLE5
10
0
20
0
30
0
70
128
71
53
72
-22
73
54
0
VERTEX
8
RECTANGLE5
10
0
20
0
30
0
70
128
71
22
72
-53
73
13
0
VERTEX
8
RECTANGLE5
10
0
20
0
30
0
70
128
71
-54
72
-22
73
55
0
VERTEX
8
RECTANGLE5
10
0
20
0
30
0
70
128
71
-55
72
-22
73
49
0
VERTEX
8
RECTANGLE5
10
0
20
0
30
0
70
128
71
-32
72
-13
73
53
0
VERTEX
8
RECTANGLE5
10
0
20
0
30
0
70
128
71
57
72
-56
73
58
0
VERTEX
8
RECTANGLE5
10
0
20
0
30
0
70
128
71
59
72
-57
73
60
0
VERTEX
8
RECTANGLE5
10
0
20
0
30
0
70
128
71
-60
72
57
73
58
0
VERTEX
8
RECTANGLE5
10
0
20
0
30
0
70
128
71
61
72
-59
73
62
0
VERTEX
8
RECTANGLE5
10
0
20
0
30
0
70
128
71
-62
72
59
73
60
0
VERTEX
8
RECTANGLE5
10
0
20
0
30
0
70
128
71
63
72
-61
73
64
0
VERTEX
8
RECTANGLE5
10
0
20
0
30
0
70
128
71
-64
72
61
73
62
0
VERTEX
8
RECTANGLE5
10
0
20
0
30
0
70
128
71
65
72
-63
73
66
0
VERTEX
8
RECTANGLE5
10
0
20
0
30
0
70
128
71
-66
72
63
73
64
0
VERTEX
8
RECTANGLE5
10
0
20
0
30
0
70
128
71
23
72
61
73
-63
0
VERTEX
8
RECTANGLE5
10
0
20
0
30
0
70
128
71
63
72
24
73
-23
0
VERTEX
8
RECTANGLE5
10
0
20
0
30
0
70
128
71
24
72
63
73
-65
0
VERTEX
8
RECTANGLE5
10
0
20
0
30
0
70
128
71
65
72
25
73
-24
0
VERTEX
8
RECTANGLE5
10
0
20
0
30
0
70
128
71
25
72
65
73
-67
0
VERTEX
8
RECTANGLE5
10
0
20
0
30
0
70
128
71
67
72
26
73
-25
0
VERTEX
8
RECTANGLE5
10
0
20
0
30
0
70
128
71
-61
72
-23
73
59
0
VERTEX
8
RECTANGLE5
10
0
20
0
30
0
70
128
71
28
72
-59
73
23
0
VERTEX
8
RECTANGLE5
10
0
20
0
30
0
70
128
71
29
72
57
73
-59
0
VERTEX
8
RECTANGLE5
10
0
20
0
30
0
70
128
71
-59
72
28
73
-29
0
VERTEX
8
RECTANGLE5
10
0
20
0
30
0
70
128
71
30
72
56
73
-57
0
VERTEX
8
RECTANGLE5
10
0
20
0
30
0
70
128
71
-57
72
29
73
-30
0
VERTEX
8
RECTANGLE5
10
0
20
0
30
0
70
128
71
-56
72
-30
73
68
0
VERTEX
8
RECTANGLE5
10
0
20
0
30
0
70
128
71
31
72
-68
73
30
0
VERTEX
8
RECTANGLE5
10
0
20
0
30
0
70
128
71
-68
72
31
73
-32
0
VERTEX
8
RECTANGLE5
10
0
20
0
30
0
70
128
71
-33
72
26
73
-67
0
VERTEX
8
RECTANGLE5
10
0
20
0
30
0
70
128
71
-26
72
33
73
-27
0
VERTEX
8
RECTANGLE5
10
0
20
0
30
0
70
128
71
34
72
67
73
-65
0
VERTEX
8
RECTANGLE5
10
0
20
0
30
0
70
128
71
-34
72
65
73
-66
0
VERTEX
8
RECTANGLE5
10
0
20
0
30
0
70
128
71
-34
72
-66
73
35
0
VERTEX
8
RECTANGLE5
10
0
20
0
30
0
70
128
71
67
72
36
73
-33
0
VERTEX
8
RECTANGLE5
10
0
20
0
30
0
70
128
71
36
72
-67
73
34
0
VERTEX
8
RECTANGLE5
10
0
20
0
30
0
70
128
71
64
72
-62
73
-37
0
VERTEX
8
RECTANGLE5
10
0
20
0
30
0
70
128
71
38
72
-64
73
37
0
VERTEX
8
RECTANGLE5
10
0
20
0
30
0
70
128
71
66
72
-64
73
-38
0
VERTEX
8
RECTANGLE5
10
0
20
0
30
0
70
128
71
39
72
-66
73
38
0
VERTEX
8
RECTANGLE5
10
0
20
0
30
0
70
128
71
66
72
40
73
-35
0
VERTEX
8
RECTANGLE5
10
0
20
0
30
0
70
128
71
-66
72
39
73
40
0
VERTEX
8
RECTANGLE5
10
0
20
0
30
0
70
128
71
62
72
-60
73
-41
0
VERTEX
8
RECTANGLE5
10
0
20
0
30
0
70
128
71
42
72
-62
73
41
0
VERTEX
8
RECTANGLE5
10
0
20
0
30
0
70
128
71
-62
72
42
73
-37
0
VERTEX
8
RECTANGLE5
10
0
20
0
30
0
70
128
71
-41
72
-60
73
43
0
VERTEX
8
RECTANGLE5
10
0
20
0
30
0
70
128
71
-43
72
-60
73
44
0
VERTEX
8
RECTANGLE5
10
0
20
0
30
0
70
128
71
-44
72
-60
73
45
0
VERTEX
8
RECTANGLE5
10
0
20
0
30
0
70
128
71
-45
72
-60
73
46
0
VERTEX
8
RECTANGLE5
10
0
20
0
30
0
70
128
71
60
72
-58
73
-47
0
VERTEX
8
RECTANGLE5
10
0
20
0
30
0
70
128
71
60
72
47
73
-46
0
VERTEX
8
RECTANGLE5
10
0
20
0
30
0
70
128
71
-47
72
-58
73
48
0
VERTEX
8
RECTANGLE5
10
0
20
0
30
0
70
128
71
56
72
-68
73
-49
0
VERTEX
8
RECTANGLE5
10
0
20
0
30
0
70
128
71
50
72
-56
73
49
0
VERTEX
8
RECTANGLE5
10
0
20
0
30
0
70
128
71
56
72
-50
73
-58
0
VERTEX
8
RECTANGLE5
10
0
20
0
30
0
70
128
71
51
72
-58
73
50
0
VERTEX
8
RECTANGLE5
10
0
20
0
30
0
70
128
71
52
72
58
73
51
0
VERTEX
8
RECTANGLE5
10
0
20
0
30
0
70
128
71
-48
72
-58
73
52
0
VERTEX
8
RECTANGLE5
10
0
20
0
30
0
70
128
71
54
72
-68
73
53
0
VERTEX
8
RECTANGLE5
10
0
20
0
30
0
70
128
71
55
72
68
73
54
0
VERTEX
8
RECTANGLE5
10
0
20
0
30
0
70
128
71
-49
72
-68
73
55
0
VERTEX
8
RECTANGLE5
10
0
20
0
30
0
70
128
71
32
72
-53
73
-68
0
SEQEND
8
RECTANGLE5
0
POLYLINE
8
RECTANGLE6
66
1
70
64
71
127
72
64
0
VERTEX
8
RECTANGLE6
10
-7.109224
20
-10.795932
30
0.034466
70
192
0
VERTEX
8
RECTANGLE6
10
-7.109225
20
-30.386250
30
0.034466
70
192
0
VERTEX
8
RECTANGLE6
10
-5.615048
20
-30.386250
30
0.034466
70
192
0
VERTEX
8
RECTANGLE6
10
-5.419021
20
-30.208828
30
0.034466
70
192
0
VERTEX
8
RECTANGLE6
10
-5.233188
20
-29.869713
30
0.034466
70
192
0
VERTEX
8
RECTANGLE6
10
-5.067747
20
-29.207205
30
0.034466
70
192
0
VERTEX
8
RECTANGLE6
10
-4.932889
20
-28.059616
30
0.034466
70
192
0
VERTEX
8
RECTANGLE6
10
-4.838814
20
-26.265244
30
0.034466
70
192
0
VERTEX
8
RECTANGLE6
10
-4.795712
20
-23.662397
30
0.034466
70
192
0
VERTEX
8
RECTANGLE6
10
-4.813783
20
-20.089376
30
0.034466
70
192
0
VERTEX
8
RECTANGLE6
10
-4.873884
20
-16.916119
30
0.034466
70
192
0
VERTEX
8
RECTANGLE6
10
-4.959077
20
-14.594687
30
0.034466
70
192
0
VERTEX
8
RECTANGLE6
10
-5.065180
20
-12.983113
30
0.034466
70
192
0
VERTEX
8
RECTANGLE6
10
-5.188010
20
-11.939420
30
0.034466
70
192
0
VERTEX
8
RECTANGLE6
10
-5.323386
20
-11.321639
30
0.034466
70
192
0
VERTEX
8
RECTANGLE6
10
-5.467125
20
-10.987800
30
0.034466
70
192
0
VERTEX
8
RECTANGLE6
10
-5.615047
20
-10.795932
30
0.034466
70
192
0
VERTEX
8
RECTANGLE6
10
-7.109224
20
-10.795932
30
30.534466
70
192
0
VERTEX
8
RECTANGLE6
10
-7.109225
20
-30.386250
30
30.534466
70
192
0
VERTEX
8
RECTANGLE6
10
-5.615048
20
-30.386250
30
30.534466
70
192
0
VERTEX
8
RECTANGLE6
10
-5.419021
20
-30.208828
30
30.534466
70
192
0
VERTEX
8
RECTANGLE6
10
-5.233188
20
-29.869713
30
30.534466
70
192
0
VERTEX
8
RECTANGLE6
10
-5.067747
20
-29.207205
30
30.534466
70
192
0
VERTEX
8
RECTANGLE6
10
-4.932889
20
-28.059616
30
30.534466
70
192
0
VERTEX
8
RECTANGLE6
10
-4.838814
20
-26.265244
30
30.534466
70
192
0
VERTEX
8
RECTANGLE6
10
-4.795712
20
-23.662397
30
30.534466
70
192
0
VERTEX
8
RECTANGLE6
10
-4.813783
20
-20.089376
30
30.534466
70
192
0
VERTEX
8
RECTANGLE6
10
-4.873884
20
-16.916119
30
30.534466
70
192
0
VERTEX
8
RECTANGLE6
10
-4.959077
20
-14.594687
30
30.534466
70
192
0
VERTEX
8
RECTANGLE6
10
-5.065180
20
-12.983113
30
30.534466
70
192
0
VERTEX
8
RECTANGLE6
10
-5.188010
20
-11.939420
30
30.534466
70
192
0
VERTEX
8
RECTANGLE6
10
-5.323386
20
-11.321639
30
30.534466
70
192
0
VERTEX
8
RECTANGLE6
10
-5.467125
20
-10.987800
30
30.534466
70
192
0
VERTEX
8
RECTANGLE6
10
-5.615047
20
-10.795932
30
30.534466
70
192
0
VERTEX
8
RECTANGLE6
10
-7.109224
20
-10.795932
30
0.034466
70
192
0
VERTEX
8
RECTANGLE6
10
-7.109224
20
-10.795932
30
30.534466
70
192
0
VERTEX
8
RECTANGLE6
10
-7.109224
20
-10.795932
30
30.534466
70
192
0
VERTEX
8
RECTANGLE6
10
-7.109224
20
-10.795932
30
0.034466
70
192
0
VERTEX
8
RECTANGLE6
10
-5.615048
20
-30.386250
30
0.034466
70
192
0
VERTEX
8
RECTANGLE6
10
-7.109225
20
-30.386250
30
0.034466
70
192
0
VERTEX
8
RECTANGLE6
10
-7.109224
20
-10.795932
30
0.034466
70
192
0
VERTEX
8
RECTANGLE6
10
-5.419021
20
-30.208828
30
0.034466
70
192
0
VERTEX
8
RECTANGLE6
10
-5.615048
20
-30.386250
30
0.034466
70
192
0
VERTEX
8
RECTANGLE6
10
-7.109224
20
-10.795932
30
0.034466
70
192
0
VERTEX
8
RECTANGLE6
10
-5.233188
20
-29.869713
30
0.034466
70
192
0
VERTEX
8
RECTANGLE6
10
-5.419021
20
-30.208828
30
0.034466
70
192
0
VERTEX
8
RECTANGLE6
10
-7.109224
20
-10.795932
30
0.034466
70
192
0
VERTEX
8
RECTANGLE6
10
-5.067747
20
-29.207205
30
0.034466
70
192
0
VERTEX
8
RECTANGLE6
10
-5.233188
20
-29.869713
30
0.034466
70
192
0
VERTEX
8
RECTANGLE6
10
-7.109224
20
-10.795932
30
0.034466
70
192
0
VERTEX
8
RECTANGLE6
10
-4.932889
20
-28.059616
30
0.034466
70
192
0
VERTEX
8
RECTANGLE6
10
-5.067747
20
-29.207205
30
0.034466
70
192
0
VERTEX
8
RECTANGLE6
10
-7.109224
20
-10.795932
30
0.034466
70
192
0
VERTEX
8
RECTANGLE6
10
-4.838814
20
-26.265244
30
0.034466
70
192
0
VERTEX
8
RECTANGLE6
10
-4.932889
20
-28.059616
30
0.034466
70
192
0
VERTEX
8
RECTANGLE6
10
-7.109224
20
-10.795932
30
0.034466
70
192
0
VERTEX
8
RECTANGLE6
10
-4.795712
20
-23.662397
30
0.034466
70
192
0
VERTEX
8
RECTANGLE6
10
-4.838814
20
-26.265244
30
0.034466
70
192
0
VERTEX
8
RECTANGLE6
10
-7.109224
20
-10.795932
30
0.034466
70
192
0
VERTEX
8
RECTANGLE6
10
-4.813783
20
-20.089376
30
0.034466
70
192
0
VERTEX
8
RECTANGLE6
10
-4.795712
20
-23.662397
30
0.034466
70
192
0
VERTEX
8
RECTANGLE6
10
-7.109224
20
-10.795932
30
0.034466
70
192
0
VERTEX
8
RECTANGLE6
10
-4.873884
20
-16.916119
30
0.034466
70
192
0
VERTEX
8
RECTANGLE6
10
-4.813783
20
-20.089376
30
0.034466
70
192
0
VERTEX
8
RECTANGLE6
10
-7.109224
20
-10.795932
30
0.034466
70
192
0
VERTEX
8
RECTANGLE6
10
-4.959077
20
-14.594687
30
0.034466
70
192
0
VERTEX
8
RECTANGLE6
10
-4.873884
20
-16.916119
30
0.034466
70
192
0
VERTEX
8
RECTANGLE6
10
-7.109224
20
-10.795932
30
0.034466
70
192
0
VERTEX
8
RECTANGLE6
10
-5.065180
20
-12.983113
30
0.034466
70
192
0
VERTEX
8
RECTANGLE6
10
-4.959077
20
-14.594687
30
0.034466
70
192
0
VERTEX
8
RECTANGLE6
10
-7.109224
20
-10.795932
30
0.034466
70
192
0
VERTEX
8
RECTANGLE6
10
-5.188010
20
-11.939420
30
0.034466
70
192
0
VERTEX
8
RECTANGLE6
10
-5.065180
20
-12.983113
30
0.034466
70
192
0
VERTEX
8
RECTANGLE6
10
-5.615047
20
-10.795932
30
0.034466
70
192
0
VERTEX
8
RECTANGLE6
10
-5.188010
20
-11.939420
30
0.034466
70
192
0
VERTEX
8
RECTANGLE6
10
-7.109224
20
-10.795932
30
0.034466
70
192
0
VERTEX
8
RECTANGLE6
10
-5.615047
20
-10.795932
30
0.034466
70
192
0
VERTEX
8
RECTANGLE6
10
-5.323386
20
-11.321639
30
0.034466
70
192
0
VERTEX
8
RECTANGLE6
10
-5.188010
20
-11.939420
30
0.034466
70
192
0
VERTEX
8
RECTANGLE6
10
-5.615047
20
-10.795932
30
0.034466
70
192
0
VERTEX
8
RECTANGLE6
10
-5.467125
20
-10.987800
30
0.034466
70
192
0
VERTEX
8
RECTANGLE6
10
-5.323386
20
-11.321639
30
0.034466
70
192
0
VERTEX
8
RECTANGLE6
10
-7.109224
20
-10.795932
30
30.534466
70
192
0
VERTEX
8
RECTANGLE6
10
-7.109225
20
-30.386250
30
30.534466
70
192
0
VERTEX
8
RECTANGLE6
10
-5.615048
20
-30.386250
30
30.534466
70
192
0
VERTEX
8
RECTANGLE6
10
-7.109224
20
-10.795932
30
30.534466
70
192
0
VERTEX
8
RECTANGLE6
10
-5.615048
20
-30.386250
30
30.534466
70
192
0
VERTEX
8
RECTANGLE6
10
-5.419021
20
-30.208828
30
30.534466
70
192
0
VERTEX
8
RECTANGLE6
10
-7.109224
20
-10.795932
30
30.534466
70
192
0
VERTEX
8
RECTANGLE6
10
-5.419021
20
-30.208828
30
30.534466
70
192
0
VERTEX
8
RECTANGLE6
10
-5.233188
20
-29.869713
30
30.534466
70
192
0
VERTEX
8
RECTANGLE6
10
-7.109224
20
-10.795932
30
30.534466
70
192
0
VERTEX
8
RECTANGLE6
10
-5.233188
20
-29.869713
30
30.534466
70
192
0
VERTEX
8
RECTANGLE6
10
-5.067747
20
-29.207205
30
30.534466
70
192
0
VERTEX
8
RECTANGLE6
10
-7.109224
20
-10.795932
30
30.534466
70
192
0
VERTEX
8
RECTANGLE6
10
-5.067747
20
-29.207205
30
30.534466
70
192
0
VERTEX
8
RECTANGLE6
10
-4.932889
20
-28.059616
30
30.534466
70
192
0
VERTEX
8
RECTANGLE6
10
-7.109224
20
-10.795932
30
30.534466
70
192
0
VERTEX
8
RECTANGLE6
10
-4.932889
20
-28.059616
30
30.534466
70
192
0
VERTEX
8
RECTANGLE6
10
-4.838814
20
-26.265244
30
30.534466
70
192
0
VERTEX
8
RECTANGLE6
10
-7.109224
20
-10.795932
30
30.534466
70
192
0
VERTEX
8
RECTANGLE6
10
-4.838814
20
-26.265244
30
30.534466
70
192
0
VERTEX
8
RECTANGLE6
10
-4.795712
20
-23.662397
30
30.534466
70
192
0
VERTEX
8
RECTANGLE6
10
-7.109224
20
-10.795932
30
30.534466
70
192
0
VERTEX
8
RECTANGLE6
10
-4.795712
20
-23.662397
30
30.534466
70
192
0
VERTEX
8
RECTANGLE6
10
-4.813783
20
-20.089376
30
30.534466
70
192
0
VERTEX
8
RECTANGLE6
10
-7.109224
20
-10.795932
30
30.534466
70
192
0
VERTEX
8
RECTANGLE6
10
-4.813783
20
-20.089376
30
30.534466
70
192
0
VERTEX
8
RECTANGLE6
10
-4.873884
20
-16.916119
30
30.534466
70
192
0
VERTEX
8
RECTANGLE6
10
-7.109224
20
-10.795932
30
30.534466
70
192
0
VERTEX
8
RECTANGLE6
10
-4.873884
20
-16.916119
30
30.534466
70
192
0
VERTEX
8
RECTANGLE6
10
-4.959077
20
-14.594687
30
30.534466
70
192
0
VERTEX
8
RECTANGLE6
10
-7.109224
20
-10.795932
30
30.534466
70
192
0
VERTEX
8
RECTANGLE6
10
-4.959077
20
-14.594687
30
30.534466
70
192
0
VERTEX
8
RECTANGLE6
10
-5.065180
20
-12.983113
30
30.534466
70
192
0
VERTEX
8
RECTANGLE6
10
-7.109224
20
-10.795932
30
30.534466
70
192
0
VERTEX
8
RECTANGLE6
10
-5.065180
20
-12.983113
30
30.534466
70
192
0
VERTEX
8
RECTANGLE6
10
-5.188010
20
-11.939420
30
30.534466
70
192
0
VERTEX
8
RECTANGLE6
10
-5.615047
20
-10.795932
30
30.534466
70
192
0
VERTEX
8
RECTANGLE6
10
-7.109224
20
-10.795932
30
30.534466
70
192
0
VERTEX
8
RECTANGLE6
10
-5.188010
20
-11.939420
30
30.534466
70
192
0
VERTEX
8
RECTANGLE6
10
-5.615047
20
-10.795932
30
30.534466
70
192
0
VERTEX
8
RECTANGLE6
10
-5.188010
20
-11.939420
30
30.534466
70
192
0
VERTEX
8
RECTANGLE6
10
-5.323386
20
-11.321639
30
30.534466
70
192
0
VERTEX
8
RECTANGLE6
10
-5.615047
20
-10.795932
30
30.534466
70
192
0
VERTEX
8
RECTANGLE6
10
-5.323386
20
-11.321639
30
30.534466
70
192
0
VERTEX
8
RECTANGLE6
10
-5.467125
20
-10.987800
30
30.534466
70
192
0
VERTEX
8
RECTANGLE6
10
0
20
0
30
0
70
128
71
-1
72
2
73
19
0
VERTEX
8
RECTANGLE6
10
0
20
0
30
0
70
128
71
1
72
19
73
-18
0
VERTEX
8
RECTANGLE6
10
0
20
0
30
0
70
128
71
-2
72
3
73
20
0
VERTEX
8
RECTANGLE6
10
0
20
0
30
0
70
128
71
2
72
20
73
-19
0
VERTEX
8
RECTANGLE6
10
0
20
0
30
0
70
128
71
-3
72
4
73
21
0
VERTEX
8
RECTANGLE6
10
0
20
0
30
0
70
128
71
3
72
21
73
-20
0
VERTEX
8
RECTANGLE6
10
0
20
0
30
0
70
128
71
-4
72
5
73
22
0
VERTEX
8
RECTANGLE6
10
0
20
0
30
0
70
128
71
4
72
22
73
-21
0
VERTEX
8
RECTANGLE6
10
0
20
0
30
0
70
128
71
-5
72
6
73
23
0
VERTEX
8
RECTANGLE6
10
0
20
0
30
0
70
128
71
5
72
23
73
-22
0
VERTEX
8
RECTANGLE6
10
0
20
0
30
0
70
128
71
-6
72
7
73
24
0
VERTEX
8
RECTANGLE6
10
0
20
0
30
0
70
128
71
6
72
24
73
-23
0
VERTEX
8
RECTANGLE6
10
0
20
0
30
0
70
128
71
-7
72
8
73
25
0
VERTEX
8
RECTANGLE6
10
0
20
0
30
0
70
128
71
7
72
25
73
-24
0
VERTEX
8
RECTANGLE6
10
0
20
0
30
0
70
128
71
-8
72
9
73
26
0
VERTEX
8
RECTANGLE6
10
0
20
0
30
0
70
128
71
8
72
26
73
-25
0
VERTEX
8
RECTANGLE6
10
0
20
0
30
0
70
128
71
-9
72
10
73
27
0
VERTEX
8
RECTANGLE6
10
0
20
0
30
0
70
128
71
9
72
27
73
-26
0
VERTEX
8
RECTANGLE6
10
0
20
0
30
0
70
128
71
-10
72
11
73
28
0
VERTEX
8
RECTANGLE6
10
0
20
0
30
0
70
128
71
10
72
28
73
-27
0
VERTEX
8
RECTANGLE6
10
0
20
0
30
0
70
128
71
-11
72
12
73
29
0
VERTEX
8
RECTANGLE6
10
0
20
0
30
0
70
128
71
11
72
29
73
-28
0
VERTEX
8
RECTANGLE6
10
0
20
0
30
0
70
128
71
-12
72
13
73
30
0
VERTEX
8
RECTANGLE6
10
0
20
0
30
0
70
128
71
12
72
30
73
-29
0
VERTEX
8
RECTANGLE6
10
0
20
0
30
0
70
128
71
-13
72
14
73
31
0
VERTEX
8
RECTANGLE6
10
0
20
0
30
0
70
128
71
13
72
31
73
-30
0
VERTEX
8
RECTANGLE6
10
0
20
0
30
0
70
128
71
-14
72
15
73
32
0
VERTEX
8
RECTANGLE6
10
0
20
0
30
0
70
128
71
14
72
32
73
-31
0
VERTEX
8
RECTANGLE6
10
0
20
0
30
0
70
128
71
-15
72
16
73
33
0
VERTEX
8
RECTANGLE6
10
0
20
0
30
0
70
128
71
15
72
33
73
-32
0
VERTEX
8
RECTANGLE6
10
0
20
0
30
0
70
128
71
-16
72
17
73
34
0
VERTEX
8
RECTANGLE6
10
0
20
0
30
0
70
128
71
16
72
34
73
-33
0
VERTEX
8
RECTANGLE6
10
0
20
0
30
0
70
128
71
-17
72
35
73
36
0
VERTEX
8
RECTANGLE6
10
0
20
0
30
0
70
128
71
17
72
37
73
-34
0
VERTEX
8
RECTANGLE6
10
0
20
0
30
0
70
128
71
38
72
39
73
-40
0
VERTEX
8
RECTANGLE6
10
0
20
0
30
0
70
128
71
-41
72
42
73
-43
0
VERTEX
8
RECTANGLE6
10
0
20
0
30
0
70
128
71
-44
72
45
73
-46
0
VERTEX
8
RECTANGLE6
10
0
20
0
30
0
70
128
71
-47
72
48
73
-49
0
VERTEX
8
RECTANGLE6
10
0
20
0
30
0
70
128
71
-50
72
51
73
-52
0
VERTEX
8
RECTANGLE6
10
0
20
0
30
0
70
128
71
-53
72
54
73
-55
0
VERTEX
8
RECTANGLE6
10
0
20
0
30
0
70
128
71
-56
72
57
73
-58
0
VERTEX
8
RECTANGLE6
10
0
20
0
30
0
70
128
71
-59
72
60
73
-61
0
VERTEX
8
RECTANGLE6
10
0
20
0
30
0
70
128
71
-62
72
63
73
-64
0
VERTEX
8
RECTANGLE6
10
0
20
0
30
0
70
128
71
-65
72
66
73
-67
0
VERTEX
8
RECTANGLE6
10
0
20
0
30
0
70
128
71
-68
72
69
73
-70
0
VERTEX
8
RECTANGLE6
10
0
20
0
30
0
70
128
71
-71
72
72
73
-73
0
VERTEX
8
RECTANGLE6
10
0
20
0
30
0
70
128
71
74
72
-75
73
-76
0
VERTEX
8
RECTANGLE6
10
0
20
0
30
0
70
128
71
-77
72
78
73
-79
0
VERTEX
8
RECTANGLE6
10
0
20
0
30
0
70
128
71
-80
72
81
73
82
0
VERTEX
8
RECTANGLE6
10
0
20
0
30
0
70
128
71
-83
72
84
73
85
0
VERTEX
8
RECTANGLE6
10
0
20
0
30
0
70
128
71
-86
72
87
73
-88
0
VERTEX
8
RECTANGLE6
10
0
20
0
30
0
70
128
71
-89
72
90
73
-91
0
VERTEX
8
RECTANGLE6
10
0
20
0
30
0
70
128
71
-92
72
93
73
-94
0
VERTEX
8
RECTANGLE6
10
0
20
0
30
0
70
128
71
-95
72
96
73
-97
0
VERTEX
8
RECTANGLE6
10
0
20
0
30
0
70
128
71
-98
72
99
73
-100
0
VERTEX
8
RECTANGLE6
10
0
20
0
30
0
70
128
71
-101
72
102
73
-103
0
VERTEX
8
RECTANGLE6
10
0
20
0
30
0
70
128
71
-104
72
105
73
-106
0
VERTEX
8
RECTANGLE6
10
0
20
0
30
0
70
128
71
-107
72
108
73
-109
0
VERTEX
8
RECTANGLE6
10
0
20
0
30
0
70
128
71
-110
72
111
73
-112
0
VERTEX
8
RECTANGLE6
10
0
20
0
30
0
70
128
71
-113
72
114
73
-115
0
VERTEX
8
RECTANGLE6
10
0
20
0
30
0
70
128
71
-116
72
117
73
-118
0
VERTEX
8
RECTANGLE6
10
0
20
0
30
0
70
128
71
-119
72
-120
73
121
0
VERTEX
8
RECTANGLE6
10
0
20
0
30
0
70
128
71
-122
72
123
73
-124
0
VERTEX
8
RECTANGLE6
10
0
20
0
30
0
70
128
71
125
72
126
73
-127
0
SEQEND
8
RECTANGLE6
0
POLYLINE
8
RECTANGLE7
66
1
70
64
71
23
72
12
0
VERTEX
8
RECTANGLE7
10
-6.903548
20
-29.872343
30
30.200607
70
192
0
VERTEX
8
RECTANGLE7
10
-6.903548
20
-11.202234
30
30.200609
70
192
0
VERTEX
8
RECTANGLE7
10
-6.903547
20
-11.202234
30
0.565515
70
192
0
VERTEX
8
RECTANGLE7
10
-6.903547
20
-29.872343
30
0.565514
70
192
0
VERTEX
8
RECTANGLE7
10
-7.403548
20
-29.872343
30
30.200607
70
192
0
VERTEX
8
RECTANGLE7
10
-7.403548
20
-11.202234
30
30.200609
70
192
0
VERTEX
8
RECTANGLE7
10
-7.403547
20
-11.202234
30
0.565515
70
192
0
VERTEX
8
RECTANGLE7
10
-7.403547
20
-29.872343
30
0.565514
70
192
0
VERTEX
8
RECTANGLE7
10
-6.903548
20
-29.872343
30
30.200607
70
192
0
VERTEX
8
RECTANGLE7
10
-7.403548
20
-29.872343
30
30.200607
70
192
0
VERTEX
8
RECTANGLE7
10
-7.403548
20
-29.872343
30
30.200607
70
192
0
VERTEX
8
RECTANGLE7
10
-6.903547
20
-11.202234
30
0.565515
70
192
0
VERTEX
8
RECTANGLE7
10
-6.903548
20
-29.872343
30
30.200607
70
192
0
VERTEX
8
RECTANGLE7
10
-6.903547
20
-29.872343
30
0.565514
70
192
0
VERTEX
8
RECTANGLE7
10
-6.903548
20
-11.202234
30
30.200609
70
192
0
VERTEX
8
RECTANGLE7
10
-6.903548
20
-29.872343
30
30.200607
70
192
0
VERTEX
8
RECTANGLE7
10
-6.903547
20
-11.202234
30
0.565515
70
192
0
VERTEX
8
RECTANGLE7
10
-7.403547
20
-11.202234
30
0.565515
70
192
0
VERTEX
8
RECTANGLE7
10
-7.403547
20
-29.872343
30
0.565514
70
192
0
VERTEX
8
RECTANGLE7
10
-7.403548
20
-29.872343
30
30.200607
70
192
0
VERTEX
8
RECTANGLE7
10
-7.403548
20
-11.202234
30
30.200609
70
192
0
VERTEX
8
RECTANGLE7
10
-7.403547
20
-11.202234
30
0.565515
70
192
0
VERTEX
8
RECTANGLE7
10
-7.403548
20
-29.872343
30
30.200607
70
192
0
VERTEX
8
RECTANGLE7
10
0
20
0
30
0
70
128
71
-1
72
2
73
6
0
VERTEX
8
RECTANGLE7
10
0
20
0
30
0
70
128
71
1
72
6
73
-5
0
VERTEX
8
RECTANGLE7
10
0
20
0
30
0
70
128
71
-2
72
3
73
7
0
VERTEX
8
RECTANGLE7
10
0
20
0
30
0
70
128
71
2
72
7
73
-6
0
VERTEX
8
RECTANGLE7
10
0
20
0
30
0
70
128
71
-3
72
4
73
8
0
VERTEX
8
RECTANGLE7
10
0
20
0
30
0
70
128
71
3
72
8
73
-7
0
VERTEX
8
RECTANGLE7
10
0
20
0
30
0
70
128
71
-4
72
9
73
10
0
VERTEX
8
RECTANGLE7
10
0
20
0
30
0
70
128
71
4
72
11
73
-8
0
VERTEX
8
RECTANGLE7
10
0
20
0
30
0
70
128
71
12
72
13
73
-14
0
VERTEX
8
RECTANGLE7
10
0
20
0
30
0
70
128
71
15
72
-16
73
17
0
VERTEX
8
RECTANGLE7
10
0
20
0
30
0
70
128
71
-18
72
19
73
20
0
VERTEX
8
RECTANGLE7
10
0
20
0
30
0
70
128
71
21
72
-22
73
23
0
SEQEND
8
RECTANGLE7
0
POLYLINE
8
RECTANGLE8
66
1
70
64
71
16
72
28
0
VERTEX
8
RECTANGLE8
10
-6.303091
20
-12.310860
30
29.067532
70
192
0
VERTEX
8
RECTANGLE8
10
-6.303091
20
-28.618313
30
29.067530
70
192
0
VERTEX
8
RECTANGLE8
10
-8.303090
20
-12.310860
30
29.067532
70
192
0
VERTEX
8
RECTANGLE8
10
-8.303090
20
-28.618313
30
29.067530
70
192
0
VERTEX
8
RECTANGLE8
10
-6.303090
20
-12.310860
30
1.225539
70
192
0
VERTEX
8
RECTANGLE8
10
-8.303089
20
-12.310860
30
1.225539
70
192
0
VERTEX
8
RECTANGLE8
10
-6.303090
20
-28.618313
30
1.225539
70
192
0
VERTEX
8
RECTANGLE8
10
-8.303089
20
-28.618313
30
1.225539
70
192
0
VERTEX
8
RECTANGLE8
10
-8.303089
20
-12.683988
30
1.553349
70
192
0
VERTEX
8
RECTANGLE8
10
-8.303089
20
-28.291803
30
1.553348
70
192
0
VERTEX
8
RECTANGLE8
10
-8.303090
20
-12.683988
30
28.718853
70
192
0
VERTEX
8
RECTANGLE8
10
-8.303090
20
-28.291805
30
28.718853
70
192
0
VERTEX
8
RECTANGLE8
10
-6.766268
20
-12.683988
30
1.553349
70
192
0
VERTEX
8
RECTANGLE8
10
-6.766268
20
-28.291805
30
28.718853
70
192
0
VERTEX
8
RECTANGLE8
10
-6.766267
20
-28.291803
30
1.553348
70
192
0
VERTEX
8
RECTANGLE8
10
-6.766268
20
-12.683988
30
28.718853
70
192
0
VERTEX
8
RECTANGLE8
10
0
20
0
30
0
70
128
71
2
72
1
73
-3
0
VERTEX
8
RECTANGLE8
10
0
20
0
30
0
70
128
71
-2
72
3
73
4
0
VERTEX
8
RECTANGLE8
10
0
20
0
30
0
70
128
71
1
72
5
73
-6
0
VERTEX
8
RECTANGLE8
10
0
20
0
30
0
70
128
71
-1
72
6
73
3
0
VERTEX
8
RECTANGLE8
10
0
20
0
30
0
70
128
71
5
72
7
73
-8
0
VERTEX
8
RECTANGLE8
10
0
20
0
30
0
70
128
71
-5
72
8
73
6
0
VERTEX
8
RECTANGLE8
10
0
20
0
30
0
70
128
71
7
72
2
73
-4
0
VERTEX
8
RECTANGLE8
10
0
20
0
30
0
70
128
71
-7
72
4
73
8
0
VERTEX
8
RECTANGLE8
10
0
20
0
30
0
70
128
71
-5
72
2
73
7
0
VERTEX
8
RECTANGLE8
10
0
20
0
30
0
70
128
71
1
72
-2
73
5
0
VERTEX
8
RECTANGLE8
10
0
20
0
30
0
70
128
71
6
72
-8
73
-9
0
VERTEX
8
RECTANGLE8
10
0
20
0
30
0
70
128
71
-6
72
-9
73
3
0
VERTEX
8
RECTANGLE8
10
0
20
0
30
0
70
128
71
8
72
-4
73
-10
0
VERTEX
8
RECTANGLE8
10
0
20
0
30
0
70
128
71
10
72
-9
73
-8
0
VERTEX
8
RECTANGLE8
10
0
20
0
30
0
70
128
71
12
72
-10
73
-4
0
VERTEX
8
RECTANGLE8
10
0
20
0
30
0
70
128
71
-3
72
-11
73
4
0
VERTEX
8
RECTANGLE8
10
0
20
0
30
0
70
128
71
-4
72
11
73
-12
0
VERTEX
8
RECTANGLE8
10
0
20
0
30
0
70
128
71
9
72
-11
73
-3
0
VERTEX
8
RECTANGLE8
10
0
20
0
30
0
70
128
71
-14
72
13
73
15
0
VERTEX
8
RECTANGLE8
10
0
20
0
30
0
70
128
71
14
72
16
73
-13
0
VERTEX
8
RECTANGLE8
10
0
20
0
30
0
70
128
71
13
72
-16
73
-9
0
VERTEX
8
RECTANGLE8
10
0
20
0
30
0
70
128
71
10
72
15
73
-13
0
VERTEX
8
RECTANGLE8
10
0
20
0
30
0
70
128
71
-13
72
9
73
-10
0
VERTEX
8
RECTANGLE8
10
0
20
0
30
0
70
128
71
14
72
-15
73
-12
0
VERTEX
8
RECTANGLE8
10
0
20
0
30
0
70
128
71
-15
72
10
73
-12
0
VERTEX
8
RECTANGLE8
10
0
20
0
30
0
70
128
71
11
72
16
73
-14
0
VERTEX
8
RECTANGLE8
10
0
20
0
30
0
70
128
71
14
72
12
73
-11
0
VERTEX
8
RECTANGLE8
10
0
20
0
30
0
70
128
71
-16
72
11
73
-9
0
SEQEND
8
RECTANGLE8
0
POLYLINE
8
RECTANGLE9
66
1
70
64
71
23
72
12
0
VERTEX
8
RECTANGLE9
10
-8.319078
20
-28.204966
30
23.241564
70
192
0
VERTEX
8
RECTANGLE9
10
-6.748726
20
-28.204966
30
23.241564
70
192
0
VERTEX
8
RECTANGLE9
10
-6.748728
20
-12.689901
30
23.241564
70
192
0
VERTEX
8
RECTANGLE9
10
-8.319078
20
-12.689901
30
23.241564
70
192
0
VERTEX
8
RECTANGLE9
10
-8.319078
20
-28.204966
30
23.741564
70
192
0
VERTEX
8
RECTANGLE9
10
-6.748727
20
-28.204964
30
23.741564
70
192
0
VERTEX
8
RECTANGLE9
10
-6.748728
20
-12.689901
30
23.741564
70
192
0
VERTEX
8
RECTANGLE9
10
-8.319078
20
-12.689901
30
23.741564
70
192
0
VERTEX
8
RECTANGLE9
10
-8.319078
20
-28.204966
30
23.241564
70
192
0
VERTEX
8
RECTANGLE9
10
-8.319078
20
-28.204966
30
23.741564
70
192
0
VERTEX
8
RECTANGLE9
10
-8.319078
20
-28.204966
30
23.741564
70
192
0
VERTEX
8
RECTANGLE9
10
-6.748728
20
-12.689901
30
23.241564
70
192
0
VERTEX
8
RECTANGLE9
10
-8.319078
20
-28.204966
30
23.241564
70
192
0
VERTEX
8
RECTANGLE9
10
-8.319078
20
-12.689901
30
23.241564
70
192
0
VERTEX
8
RECTANGLE9
10
-6.748726
20
-28.204966
30
23.241564
70
192
0
VERTEX
8
RECTANGLE9
10
-8.319078
20
-28.204966
30
23.241564
70
192
0
VERTEX
8
RECTANGLE9
10
-6.748728
20
-12.689901
30
23.241564
70
192
0
VERTEX
8
RECTANGLE9
10
-6.748728
20
-12.689901
30
23.741564
70
192
0
VERTEX
8
RECTANGLE9
10
-8.319078
20
-12.689901
30
23.741564
70
192
0
VERTEX
8
RECTANGLE9
10
-8.319078
20
-28.204966
30
23.741564
70
192
0
VERTEX
8
RECTANGLE9
10
-6.748727
20
-28.204964
30
23.741564
70
192
0
VERTEX
8
RECTANGLE9
10
-6.748728
20
-12.689901
30
23.741564
70
192
0
VERTEX
8
RECTANGLE9
10
-8.319078
20
-28.204966
30
23.741564
70
192
0
VERTEX
8
RECTANGLE9
10
0
20
0
30
0
70
128
71
-1
72
2
73
6
0
VERTEX
8
RECTANGLE9
10
0
20
0
30
0
70
128
71
1
72
6
73
-5
0
VERTEX
8
RECTANGLE9
10
0
20
0
30
0
70
128
71
-2
72
3
73
7
0
VERTEX
8
RECTANGLE9
10
0
20
0
30
0
70
128
71
2
72
7
73
-6
0
VERTEX
8
RECTANGLE9
10
0
20
0
30
0
70
128
71
-3
72
4
73
8
0
VERTEX
8
RECTANGLE9
10
0
20
0
30
0
70
128
71
3
72
8
73
-7
0
VERTEX
8
RECTANGLE9
10
0
20
0
30
0
70
128
71
-4
72
9
73
10
0
VERTEX
8
RECTANGLE9
10
0
20
0
30
0
70
128
71
4
72
11
73
-8
0
VERTEX
8
RECTANGLE9
10
0
20
0
30
0
70
128
71
12
72
13
73
-14
0
VERTEX
8
RECTANGLE9
10
0
20
0
30
0
70
128
71
15
72
-16
73
17
0
VERTEX
8
RECTANGLE9
10
0
20
0
30
0
70
128
71
-18
72
19
73
20
0
VERTEX
8
RECTANGLE9
10
0
20
0
30
0
70
128
71
21
72
-22
73
23
0
SEQEND
8
RECTANGLE9
0
POLYLINE
8
RECTANGL10
66
1
70
64
71
23
72
12
0
VERTEX
8
RECTANGL10
10
-6.748728
20
-12.689899
30
7.583858
70
192
0
VERTEX
8
RECTANGL10
10
-8.319078
20
-12.689899
30
7.583858
70
192
0
VERTEX
8
RECTANGL10
10
-8.319078
20
-28.204964
30
7.583858
70
192
0
VERTEX
8
RECTANGL10
10
-6.748728
20
-28.204964
30
7.583858
70
192
0
VERTEX
8
RECTANGL10
10
-6.748728
20
-12.689899
30
8.083858
70
192
0
VERTEX
8
RECTANGL10
10
-8.319078
20
-12.689899
30
8.083858
70
192
0
VERTEX
8
RECTANGL10
10
-8.319078
20
-28.204964
30
8.083858
70
192
0
VERTEX
8
RECTANGL10
10
-6.748728
20
-28.204964
30
8.083858
70
192
0
VERTEX
8
RECTANGL10
10
-6.748728
20
-12.689899
30
7.583858
70
192
0
VERTEX
8
RECTANGL10
10
-6.748728
20
-12.689899
30
8.083858
70
192
0
VERTEX
8
RECTANGL10
10
-6.748728
20
-12.689899
30
8.083858
70
192
0
VERTEX
8
RECTANGL10
10
-8.319078
20
-28.204964
30
7.583858
70
192
0
VERTEX
8
RECTANGL10
10
-6.748728
20
-12.689899
30
7.583858
70
192
0
VERTEX
8
RECTANGL10
10
-6.748728
20
-28.204964
30
7.583858
70
192
0
VERTEX
8
RECTANGL10
10
-8.319078
20
-12.689899
30
7.583858
70
192
0
VERTEX
8
RECTANGL10
10
-6.748728
20
-12.689899
30
7.583858
70
192
0
VERTEX
8
RECTANGL10
10
-8.319078
20
-28.204964
30
7.583858
70
192
0
VERTEX
8
RECTANGL10
10
-8.319078
20
-28.204964
30
8.083858
70
192
0
VERTEX
8
RECTANGL10
10
-6.748728
20
-28.204964
30
8.083858
70
192
0
VERTEX
8
RECTANGL10
10
-6.748728
20
-12.689899
30
8.083858
70
192
0
VERTEX
8
RECTANGL10
10
-8.319078
20
-12.689899
30
8.083858
70
192
0
VERTEX
8
RECTANGL10
10
-8.319078
20
-28.204964
30
8.083858
70
192
0
VERTEX
8
RECTANGL10
10
-6.748728
20
-12.689899
30
8.083858
70
192
0
VERTEX
8
RECTANGL10
10
0
20
0
30
0
70
128
71
-1
72
2
73
6
0
VERTEX
8
RECTANGL10
10
0
20
0
30
0
70
128
71
1
72
6
73
-5
0
VERTEX
8
RECTANGL10
10
0
20
0
30
0
70
128
71
-2
72
3
73
7
0
VERTEX
8
RECTANGL10
10
0
20
0
30
0
70
128
71
2
72
7
73
-6
0
VERTEX
8
RECTANGL10
10
0
20
0
30
0
70
128
71
-3
72
4
73
8
0
VERTEX
8
RECTANGL10
10
0
20
0
30
0
70
128
71
3
72
8
73
-7
0
VERTEX
8
RECTANGL10
10
0
20
0
30
0
70
128
71
-4
72
9
73
10
0
VERTEX
8
RECTANGL10
10
0
20
0
30
0
70
128
71
4
72
11
73
-8
0
VERTEX
8
RECTANGL10
10
0
20
0
30
0
70
128
71
12
72
13
73
-14
0
VERTEX
8
RECTANGL10
10
0
20
0
30
0
70
128
71
15
72
-16
73
17
0
VERTEX
8
RECTANGL10
10
0
20
0
30
0
70
128
71
-18
72
19
73
20
0
VERTEX
8
RECTANGL10
10
0
20
0
30
0
70
128
71
21
72
-22
73
23
0
SEQEND
8
RECTANGL10
0
POLYLINE
8
RECTANGL11
66
1
70
64
71
23
72
12
0
VERTEX
8
RECTANGL11
10
-6.748728
20
-12.689899
30
12.912786
70
192
0
VERTEX
8
RECTANGL11
10
-8.319078
20
-12.689899
30
12.912786
70
192
0
VERTEX
8
RECTANGL11
10
-8.319078
20
-28.204964
30
12.912786
70
192
0
VERTEX
8
RECTANGL11
10
-6.748728
20
-28.204964
30
12.912786
70
192
0
VERTEX
8
RECTANGL11
10
-6.748728
20
-12.689899
30
13.412786
70
192
0
VERTEX
8
RECTANGL11
10
-8.319078
20
-12.689899
30
13.412786
70
192
0
VERTEX
8
RECTANGL11
10
-8.319078
20
-28.204964
30
13.412786
70
192
0
VERTEX
8
RECTANGL11
10
-6.748728
20
-28.204964
30
13.412786
70
192
0
VERTEX
8
RECTANGL11
10
-6.748728
20
-12.689899
30
12.912786
70
192
0
VERTEX
8
RECTANGL11
10
-6.748728
20
-12.689899
30
13.412786
70
192
0
VERTEX
8
RECTANGL11
10
-6.748728
20
-12.689899
30
13.412786
70
192
0
VERTEX
8
RECTANGL11
10
-8.319078
20
-28.204964
30
12.912786
70
192
0
VERTEX
8
RECTANGL11
10
-6.748728
20
-12.689899
30
12.912786
70
192
0
VERTEX
8
RECTANGL11
10
-6.748728
20
-28.204964
30
12.912786
70
192
0
VERTEX
8
RECTANGL11
10
-8.319078
20
-12.689899
30
12.912786
70
192
0
VERTEX
8
RECTANGL11
10
-6.748728
20
-12.689899
30
12.912786
70
192
0
VERTEX
8
RECTANGL11
10
-8.319078
20
-28.204964
30
12.912786
70
192
0
VERTEX
8
RECTANGL11
10
-8.319078
20
-28.204964
30
13.412786
70
192
0
VERTEX
8
RECTANGL11
10
-6.748728
20
-28.204964
30
13.412786
70
192
0
VERTEX
8
RECTANGL11
10
-6.748728
20
-12.689899
30
13.412786
70
192
0
VERTEX
8
RECTANGL11
10
-8.319078
20
-12.689899
30
13.412786
70
192
0
VERTEX
8
RECTANGL11
10
-8.319078
20
-28.204964
30
13.412786
70
192
0
VERTEX
8
RECTANGL11
10
-6.748728
20
-12.689899
30
13.412786
70
192
0
VERTEX
8
RECTANGL11
10
0
20
0
30
0
70
128
71
-1
72
2
73
6
0
VERTEX
8
RECTANGL11
10
0
20
0
30
0
70
128
71
1
72
6
73
-5
0
VERTEX
8
RECTANGL11
10
0
20
0
30
0
70
128
71
-2
72
3
73
7
0
VERTEX
8
RECTANGL11
10
0
20
0
30
0
70
128
71
2
72
7
73
-6
0
VERTEX
8
RECTANGL11
10
0
20
0
30
0
70
128
71
-3
72
4
73
8
0
VERTEX
8
RECTANGL11
10
0
20
0
30
0
70
128
71
3
72
8
73
-7
0
VERTEX
8
RECTANGL11
10
0
20
0
30
0
70
128
71
-4
72
9
73
10
0
VERTEX
8
RECTANGL11
10
0
20
0
30
0
70
128
71
4
72
11
73
-8
0
VERTEX
8
RECTANGL11
10
0
20
0
30
0
70
128
71
12
72
13
73
-14
0
VERTEX
8
RECTANGL11
10
0
20
0
30
0
70
128
71
15
72
-16
73
17
0
VERTEX
8
RECTANGL11
10
0
20
0
30
0
70
128
71
-18
72
19
73
20
0
VERTEX
8
RECTANGL11
10
0
20
0
30
0
70
128
71
21
72
-22
73
23
0
SEQEND
8
RECTANGL11
0
POLYLINE
8
RECTANGL12
66
1
70
64
71
23
72
12
0
VERTEX
8
RECTANGL12
10
-8.319078
20
-28.204964
30
17.754269
70
192
0
VERTEX
8
RECTANGL12
10
-6.748726
20
-28.204964
30
17.754269
70
192
0
VERTEX
8
RECTANGL12
10
-6.748728
20
-12.689899
30
17.754269
70
192
0
VERTEX
8
RECTANGL12
10
-8.319078
20
-12.689899
30
17.754269
70
192
0
VERTEX
8
RECTANGL12
10
-8.319078
20
-28.204964
30
18.254269
70
192
0
VERTEX
8
RECTANGL12
10
-6.748727
20
-28.204964
30
18.254269
70
192
0
VERTEX
8
RECTANGL12
10
-6.748728
20
-12.689898
30
18.254269
70
192
0
VERTEX
8
RECTANGL12
10
-8.319078
20
-12.689899
30
18.254269
70
192
0
VERTEX
8
RECTANGL12
10
-8.319078
20
-28.204964
30
17.754269
70
192
0
VERTEX
8
RECTANGL12
10
-8.319078
20
-28.204964
30
18.254269
70
192
0
VERTEX
8
RECTANGL12
10
-8.319078
20
-28.204964
30
18.254269
70
192
0
VERTEX
8
RECTANGL12
10
-6.748728
20
-12.689899
30
17.754269
70
192
0
VERTEX
8
RECTANGL12
10
-8.319078
20
-28.204964
30
17.754269
70
192
0
VERTEX
8
RECTANGL12
10
-8.319078
20
-12.689899
30
17.754269
70
192
0
VERTEX
8
RECTANGL12
10
-6.748726
20
-28.204964
30
17.754269
70
192
0
VERTEX
8
RECTANGL12
10
-8.319078
20
-28.204964
30
17.754269
70
192
0
VERTEX
8
RECTANGL12
10
-6.748728
20
-12.689899
30
17.754269
70
192
0
VERTEX
8
RECTANGL12
10
-6.748728
20
-12.689898
30
18.254269
70
192
0
VERTEX
8
RECTANGL12
10
-8.319078
20
-12.689899
30
18.254269
70
192
0
VERTEX
8
RECTANGL12
10
-8.319078
20
-28.204964
30
18.254269
70
192
0
VERTEX
8
RECTANGL12
10
-6.748727
20
-28.204964
30
18.254269
70
192
0
VERTEX
8
RECTANGL12
10
-6.748728
20
-12.689898
30
18.254269
70
192
0
VERTEX
8
RECTANGL12
10
-8.319078
20
-28.204964
30
18.254269
70
192
0
VERTEX
8
RECTANGL12
10
0
20
0
30
0
70
128
71
-1
72
2
73
6
0
VERTEX
8
RECTANGL12
10
0
20
0
30
0
70
128
71
1
72
6
73
-5
0
VERTEX
8
RECTANGL12
10
0
20
0
30
0
70
128
71
-2
72
3
73
7
0
VERTEX
8
RECTANGL12
10
0
20
0
30
0
70
128
71
2
72
7
73
-6
0
VERTEX
8
RECTANGL12
10
0
20
0
30
0
70
128
71
-3
72
4
73
8
0
VERTEX
8
RECTANGL12
10
0
20
0
30
0
70
128
71
3
72
8
73
-7
0
VERTEX
8
RECTANGL12
10
0
20
0
30
0
70
128
71
-4
72
9
73
10
0
VERTEX
8
RECTANGL12
10
0
20
0
30
0
70
128
71
4
72
11
73
-8
0
VERTEX
8
RECTANGL12
10
0
20
0
30
0
70
128
71
12
72
13
73
-14
0
VERTEX
8
RECTANGL12
10
0
20
0
30
0
70
128
71
15
72
-16
73
17
0
VERTEX
8
RECTANGL12
10
0
20
0
30
0
70
128
71
-18
72
19
73
20
0
VERTEX
8
RECTANGL12
10
0
20
0
30
0
70
128
71
21
72
-22
73
23
0
SEQEND
8
RECTANGL12
0
ENDSEC
0
EOF
