<?xml version="1.0" encoding="UTF-8" standalone="no"?>
<!-- Created with Inkscape (http://www.inkscape.org/) -->

<svg version="1.1" id="svg2708" width="764.66785" height="1050.2599" viewBox="0 0 764.66786 1050.2599"
	sodipodi:docname="4c.svg" inkscape:version="1.2.2 (732a01da63, 2022-12-09, custom)"
	xmlns:inkscape="http://www.inkscape.org/namespaces/inkscape"
	xmlns:sodipodi="http://sodipodi.sourceforge.net/DTD/sodipodi-0.dtd" xmlns="http://www.w3.org/2000/svg"
	xmlns:svg="http://www.w3.org/2000/svg">
	<defs id="defs2712" />
	<sodipodi:namedview id="namedview2710" pagecolor="#ffffff" bordercolor="#000000" borderopacity="0.25"
		inkscape:showpageshadow="2" inkscape:pageopacity="0.0" inkscape:pagecheckerboard="0" inkscape:deskcolor="#d1d1d1"
		showgrid="false" inkscape:zoom="0.1866066" inkscape:cx="107.17735" inkscape:cy="514.45126"
		inkscape:window-width="1920" inkscape:window-height="1031" inkscape:window-x="0" inkscape:window-y="25"
		inkscape:window-maximized="1" inkscape:current-layer="layer1" />
	<g inkscape:groupmode="layer" id="layer1" inkscape:label="Layer 1" transform="translate(-123.4093,-38.726305)">
		<path style="fill:#ffcc00;stroke-width:1.33333"
			d="m 478.00002,1087.9165 c -37.09779,-5.0512 -70.65947,-21.7306 -98.52377,-48.9642 -14.63052,-14.2994 -25.04672,-28.7716 -34.23456,-47.56512 -23.53101,-48.1321 -22.65847,-103.37875 2.42223,-153.3669 22.68012,-45.2036 60.16023,-76.13493 110.43787,-91.14141 22.3082,-6.65839 23.72251,-7.40799 22.57831,-11.96681 -1.48706,-5.92492 -9.41223,-21.9104 -13.82322,-27.88214 -5.73408,-7.76298 -18.07408,-17.18386 -26.80984,-20.46776 -4.00745,-1.50646 -11.80745,-3.14924 -17.33333,-3.65061 -9.7414,-0.88387 -10.05999,-1.02445 -10.47311,-4.62164 -0.62508,-5.44281 3.17069,-15.63481 8.00873,-21.5042 4.96027,-6.01767 15.68298,-11.42093 22.70132,-11.4394 2.72286,-0.007 8.04003,1.20469 11.81594,2.69301 5.27476,2.07912 7.29407,2.3502 8.71603,1.17008 2.12334,-1.76221 2.35186,-4.23957 0.69748,-7.56088 -0.6343,-1.27338 -2.79515,-5.91524 -4.8019,-10.31524 -10.41133,-22.82796 -29.65356,-43.32869 -54.71152,-58.28982 -15.33947,-9.1586 -28.58625,-13.71164 -47.33333,-16.26891 l -11.33334,-1.54597 0.001,-7.94766 c 10e-4,-6.10314 0.69751,-8.92373 3,-12.15346 3.4125,-4.78675 3.80823,-7.12751 1.205,-7.12751 -2.53248,0 -5.83352,-4.00413 -6.9332,-8.40989 -1.58977,-6.36932 -5.91941,-8.0366 -22.42612,-8.63599 -36.90568,-1.34011 -70.76724,14.31631 -99.05753,45.80076 -36.40191,40.51193 -43.67316,84.65275 -19.84826,120.49053 11.2487,16.92044 31.59331,32.83164 49.67239,38.84796 7.03887,2.34239 10.8822,2.78014 20.40966,2.32463 10.3256,-0.49368 12.99178,-1.18096 22.16088,-5.71256 34.37376,-16.98844 54.08833,-61.5974 41.77129,-94.51761 -8.39265,-22.43138 -36.43348,-35.86039 -53.72263,-25.72828 -7.32857,4.29482 -15.13413,12.89078 -18.39082,20.25306 -7.50704,16.97091 -2.38367,40.0993 8.6452,39.02703 l 4.17948,-0.40631 -0.46062,-11.40486 c -0.33858,-8.3834 0.1164,-12.78594 1.71752,-16.61787 4.67874,-11.19779 8.90015,-12.47653 17.80836,-5.39449 14.80154,11.76721 18.42794,24.05116 11.26807,38.16898 -6.3474,12.5158 -22.60812,21.38444 -35.44491,19.33175 -14.12416,-2.25855 -27.50355,-12.81759 -34.58936,-27.29801 -4.08468,-8.34738 -4.29907,-9.55016 -4.29907,-24.11883 0,-14.22696 0.27512,-15.87617 3.81283,-22.85665 10.75807,-21.22739 38.51787,-39.84736 59.32763,-39.79419 15.74895,0.0403 40.66017,11.32327 53.62543,24.28852 9.11807,9.11807 14.25067,27.55939 15.50125,55.69565 1.3068,29.40114 -2.90234,43.9945 -18.16983,62.9959 -13.79718,17.1715 -25.95509,27.24684 -43.33941,35.91561 -14.30776,7.13464 -18.09123,10.77443 -18.09123,17.40416 0,8.07884 -5.79864,16.50892 -14.40278,20.93884 -3.90652,2.01129 -14.35418,-1.17887 -19.51032,-5.95741 -3.11258,-2.88464 -3.45851,-4.10872 -3.17683,-11.24112 0.41014,-10.38586 -1.48075,-12.87831 -16.91007,-22.28968 -17.63087,-10.75423 -29.69159,-20.37882 -43.05963,-34.36204 -11.79196,-12.33459 -25.6995,-30.93351 -29.05088,-38.85046 -3.11516,-7.35894 -9.00517,-12.50584 -14.09257,-12.31458 -10.33182,0.38841 -22.94852,-10.18232 -21.6245,-18.11782 2.22227,-13.31918 6.38832,-18.1214 15.72082,-18.1214 4.77109,0 15.55561,-4.23514 17.78552,-6.98448 0.75041,-0.9252 2.32343,-4.53477 3.4956,-8.02126 9.26448,-27.55604 40.80284,-69.19882 65.09267,-85.94735 19.76226,-13.62665 46.60424,-24.62015 71.06631,-29.10617 18.05058,-3.31024 22.34293,-4.83448 24.49909,-8.69979 3.46244,-6.20648 -0.76952,-14.57428 -7.37052,-14.57428 -1.84136,0 -7.51407,1.82853 -12.60602,4.0634 -11.19846,4.91503 -28.82802,9.6138 -32.59808,8.68829 -1.50838,-0.37029 -3.60838,-2.6107 -4.66666,-4.97869 -2.45284,-5.48843 -6.11294,-6.47047 -23.3367,-6.26144 -25.22937,0.3062 -25.98439,-4.22024 -1.92079,-11.51545 10.43342,-3.16303 26.66667,-14.0264 26.66667,-17.84547 0,-4.3756 -25.21515,-14.60809 -42.94805,-17.42864 -20.38583,-3.24249 -39.20508,7.92809 -44.59556,26.47069 -3.62999,12.48671 -0.56399,20.89335 14.80408,40.59112 6.47732,8.30223 7.72805,13.51115 3.5617,14.8335 -5.05177,1.60337 -22.6202,-4.11032 -31.01217,-10.08594 -7.60029,-5.41188 -15.47484,-27.09453 -13.93956,-38.38269 1.00655,-7.4006 11.03336,-27.70664 18.81585,-38.1054 10.25446,-13.70171 23.42256,-22.04328 34.79776,-22.04328 2.3883,0 5.95763,-0.61412 7.93184,-1.36472 3.20455,-1.21837 3.50748,-1.87017 2.82468,-6.07776 -1.05182,-6.48163 -13.64164,-24.97575 -23.22397,-34.11544 -8.899,-8.48793 -15.93429,-11.22703 -25.47687,-9.91907 -12.21192,1.67383 -20.58808,9.62591 -24.07016,22.85152 -2.99772,11.38587 -7.82217,12.89394 -11.68362,3.65216 -4.05381,-9.70213 -1.53168,-23.44082 5.83977,-31.81069 9.32864,-10.59213 26.0026,-17.88871 40.84807,-17.87523 11.43656,0.0107 16.69932,1.78236 27.8404,9.37396 5.3272,3.62999 10.37077,6.60416 11.20793,6.60928 1.87383,0.012 2.51207,-2.46393 5.13099,-19.90042 3.25386,-21.66383 9.80094,-35.62974 25.84828,-55.1382 12.81496,-15.57894 25.78439,-22.56198 46.21552,-24.88352 13.80679,-1.56884 21.52463,-0.33432 32.47836,5.1951 14.67427,7.40755 26.22422,21.71712 30.26739,37.4992 2.65037,10.34544 1.71719,17.86022 -3.58233,28.84787 -8.62885,17.8904 -24.55239,24.38196 -41.96334,17.1072 -4.89161,-2.04384 -7.31957,-7.5296 -4.97656,-11.24405 0.73321,-1.16238 3.89941,-2.55152 7.036,-3.08698 9.10284,-1.55397 13.66177,-5.16597 18.86137,-14.94366 2.22295,-4.18022 2.66819,-6.94379 2.22927,-13.83698 -0.50181,-7.88085 -0.95836,-8.98913 -5.36729,-13.02962 -6.30787,-5.78074 -13.81734,-7.91591 -27.72594,-7.88338 -9.66604,0.0227 -12.4817,0.57563 -18.88725,3.70958 -25.06717,12.26422 -42.94938,53.03418 -36.57127,83.37945 4.74399,22.57051 28.75714,62.8844 37.45738,62.8844 4.03508,0 12.53416,-9.32668 24.37009,-26.74316 22.61555,-33.27859 47.95815,-55.92351 62.58567,-55.92351 6.30027,0 9.73821,-3.93085 9.73821,-11.13437 0,-7.96697 -2.27972,-14.17085 -6.83728,-18.60657 -5.00132,-4.8676 -4.16013,-6.33963 9.06034,-15.85511 17.96036,-12.92703 22.53749,-14.68371 37.97558,-14.57483 10.95567,0.0773 15.49487,0.80171 25.89227,4.1323 6.9342,2.22122 13.81982,4.03858 15.30134,4.03858 3.70482,0 5.59294,5.18059 3.15865,8.66667 -4.86627,6.9688 -4.87171,7.17708 -0.26087,9.98797 2.40715,1.46747 4.9214,2.85208 5.58723,3.07694 0.66583,0.22485 0.80563,2.02228 0.31069,3.9943 -0.63869,2.54475 -2.79025,4.54339 -7.41238,6.88562 -7.91414,4.01038 -11.60223,8.44364 -12.76883,15.34865 -0.4891,2.89489 -3.20623,8.3644 -6.10744,12.29408 -8.97715,12.15951 -10.80544,17.12116 -9.46311,25.68116 4.76704,30.39907 -26.572,75.53009 -68.49715,98.64201 -11.04533,6.08892 -16.60571,10.96062 -16.60571,14.54902 0,1.49353 4.09733,6.66033 9.4939,11.97197 5.22164,5.13947 10.29968,11.27303 11.28455,13.63015 2.27664,5.44876 8.59696,10.7977 17.70629,14.98497 5.34031,2.45477 7.40503,2.87689 8.15288,1.66684 0.55081,-0.89124 1.30873,-6.54536 1.68427,-12.56472 0.78882,-12.64388 3.71312,-19.56208 10.95736,-25.9226 5.8976,-5.17816 10.89186,-6.62669 13.57988,-3.93868 1.0817,1.08172 2.88217,7.30951 4.00104,13.83953 3.07916,17.97102 5.44686,23.66218 25.46369,61.20612 24.66487,46.26191 32.76368,58.90706 35.2349,55.01427 3.46616,-5.46008 -2.13351,-85.94996 -7.66782,-110.21741 -2.37652,-10.42086 -8.69402,-19.67063 -25.72729,-37.66863 -6.69,-7.06891 -12.16364,-13.17236 -12.16364,-13.5632 0,-0.39085 9.34961,-0.90288 20.77693,-1.13784 18.94299,-0.38948 20.95367,-0.66257 22.77922,-3.09385 1.65297,-2.20146 1.89161,-6.38836 1.36792,-24 -0.77427,-26.03899 -3.07376,-36.07248 -14.26086,-62.22518 -4.3981,-10.28168 -7.99654,-18.93716 -7.99654,-19.2344 0,-1.19704 11.85586,-0.33181 20,1.45958 4.76666,1.04848 9.11666,1.9274 9.66666,1.95316 0.55,0.0257 1,-19.08196 1,-42.4616 v -42.50844 l -11,-4.70322 c -6.05,-2.58676 -17.19237,-6.61772 -24.76084,-8.95768 -16.53799,-5.1131 -28.07163,-13.1258 -45.97715,-31.94144 -19.01689,-19.98349 -24.83805,-30.4935 -34.73536,-62.71412 -7.81785,-25.451 -7.82377,-25.50674 -2.85998,-26.92692 2.2,-0.62944 19.16473,-0.74092 37.6994,-0.24774 32.71633,0.87054 33.67218,0.82296 32.76634,-1.63099 -2.81626,-7.62938 -18.50526,-27.508141 -33.01489,-41.831573 -6.29797,-6.217143 -11.45085,-11.745269 -11.45085,-12.284725 0,-0.539456 3.63114,-4.002703 8.06922,-7.696104 14.94778,-12.439663 22.18492,-8.572198 34.83982,18.618058 10.53123,22.62734 16.68309,34.126674 22.33437,41.748404 l 4.75659,6.41508 1.20757,-4.41508 c 9.95367,-36.39193 16.11462,-52.827082 24.89624,-66.413961 6.28718,-9.727476 9.17979,-10.264675 16.15983,-3.001109 10.76648,11.203813 21.97187,31.986846 30.55105,56.66416 2.48526,7.14863 4.86388,12.99863 5.28586,13 1.22125,0.004 19.56975,-38.772034 21.13471,-44.66416 0.77909,-2.933334 1.41989,-7.778746 1.42397,-10.767582 0.012,-8.328678 7.44437,-13.926184 18.42757,-13.877152 15.20788,0.06789 26.59728,19.066064 18.94958,31.608951 -1.56498,2.566685 -4.11375,4.624116 -6.32835,5.108377 -10.23556,2.238192 -16.22692,7.183548 -21.69984,17.91136 -6.02944,11.818666 -3.24031,12.955346 27.03885,11.019426 32.10947,-2.05295 35.0349,-1.28099 33.89514,8.94418 -0.45742,4.10364 -5.19962,15.06805 -14.72795,34.05244 -18.42911,36.71841 -30.48791,56.82141 -39.5576,65.94573 -14.57023,14.65796 -32.71031,23.83517 -52.65663,26.63943 -5.86667,0.82478 -11.94969,1.77517 -13.51785,2.11194 -2.78135,0.59734 -2.87123,1.35554 -3.66955,30.95762 -0.45011,16.6899 -1.14885,36.78816 -1.55277,44.66278 l -0.73442,14.31751 6.40396,-0.9782 c 3.52218,-0.53801 9.39202,-0.98089 13.04407,-0.98417 8.82216,-0.008 9.14457,2.21332 2.03032,13.9878 -6.54449,10.83152 -11.01327,23.105 -15.48675,42.5344 -3.39341,14.7384 -5.53704,38.55953 -4.01546,44.62197 1.14225,4.55111 3.3492,4.48771 16.83178,-0.48348 5.96672,-2.2 11.66162,-4 12.65532,-4 0.99371,0 3.65279,1.55333 5.90905,3.45185 6.27321,5.27856 5.5121,8.82682 -5.45286,25.42092 -16.74416,25.34022 -23.38365,43.26284 -26.34928,71.12723 -1.60649,15.09425 -4.51043,84.02957 -3.57903,84.96099 0.35772,0.3577 3.43698,-4.89802 6.84279,-11.6794 8.73113,-17.38472 18.72376,-33.03796 31.4601,-49.28159 21.60286,-27.55177 28.49492,-40.58907 32.50608,-61.48979 4.28341,-22.31932 4.76097,-23.84354 7.47032,-23.84354 4.78764,0 13.03352,9.24093 18.48533,20.71604 2.88472,6.07184 5.87149,11.42693 6.63725,11.9002 1.46543,0.90568 13.22659,-2.15442 21.83186,-5.68034 6.34914,-2.6015 11.07973,-8.11498 12.96279,-15.1081 1.80954,-6.72019 0.78776,-11.70242 -4.42878,-21.59444 -4.82451,-9.14866 -10.30701,-14.0303 -19.343,-17.22307 -4.72272,-1.66872 -9.99176,-5.53988 -18.70684,-13.74389 -23.58799,-22.20474 -34.87527,-46.06468 -32.77193,-69.27587 1.00858,-11.13001 0.58909,-12.17667 -9.34046,-23.30491 -6.84302,-7.66913 -9.03664,-11.51434 -10.65972,-18.68562 -0.5904,-2.60854 -3.35701,-4.61714 -12.72352,-9.23748 -6.583,-3.2473 -12.258,-6.65704 -12.61111,-7.57723 -0.58418,-1.52237 1.77203,-3.85437 9.20564,-9.11104 2.565,-1.81384 2.5804,-2.05452 0.40383,-6.31332 -1.24456,-2.43519 -2.83532,-6.63821 -3.53503,-9.34008 -1.04668,-4.04171 -0.8633,-5.28252 1.0345,-7 3.34681,-3.02883 9.4674,-2.56541 16.66537,1.26177 5.70566,3.03374 6.63516,3.17467 9.86526,1.49578 11.82106,-6.14423 18.17153,-6.92683 34.50305,-4.25198 9.67061,1.58391 15.64352,3.46316 22.99959,7.23636 12.79841,6.56478 13.52478,7.76482 8.6062,14.21846 -3.2457,4.25865 -3.86258,6.29469 -3.79294,12.51894 0.0957,8.5618 3.81527,16.91447 9.54631,21.43768 2.03713,1.60779 7.49487,4.64547 12.12831,6.75039 19.61987,8.91308 45.54345,35.41533 60.53708,61.8884 3.31544,5.85384 7.63475,11.84288 9.59845,13.309 3.5622,2.65956 3.58154,2.65961 8.46126,0.0233 9.31905,-5.03464 24.83617,-27.60497 29.77499,-43.30898 6.10486,-19.41182 1.5333,-58.78498 -9.38343,-80.81586 -7.10219,-14.33281 -19.23518,-26.08898 -30.22131,-29.28274 -13.35412,-3.88215 -23.74752,-0.23634 -31.73836,11.13322 -5.30169,7.5434 -5.76923,18.3213 -1.01448,23.38662 5.93493,6.32261 13.98923,5.51084 23.15371,-2.33362 13.0274,-11.15097 19.12838,-1.0714 10.07432,16.64398 -5.34255,10.45333 -9.37074,13.52528 -18.75603,14.30357 -15.19844,1.26037 -32.34273,-8.34151 -37.38221,-20.93639 -7.11248,-17.77584 -2.31411,-42.5496 10.6974,-55.23004 8.80916,-8.58504 17.73248,-12.0526 32.54698,-12.64762 19.70563,-0.79148 36.11731,5.0526 50.52055,17.98998 18.38267,16.51184 26.65295,41.79074 26.72484,81.68714 0.0107,5.55596 0.3941,11.50564 0.8535,13.22148 0.98441,3.67674 0.97977,3.67744 19.79497,-2.9628 24.0244,-8.47868 45.8748,-9.05728 58.67851,-1.5538 14.33833,8.40281 25.32952,29.13801 21.17884,39.95449 -1.30273,3.39489 -3.63397,2.48713 -9.54756,-3.71771 -3.05429,-3.20472 -7.69003,-6.84072 -10.30164,-8.08001 -18.00359,-8.54325 -47.94844,-3.08821 -61.88632,11.27381 -8.56819,8.82895 -7.20626,11.2104 7.2115,12.60995 11.9888,1.16376 21.73574,5.79885 28.60524,13.60301 10.76346,12.22794 16.06143,28.19962 16.06143,48.42 0,20.38011 -5.42781,36.09448 -16.18159,46.84826 -13.7551,13.7551 -37.52716,17.05661 -45.49374,6.31825 -4.0051,-5.39856 -1.5624,-8.32832 9.82837,-11.78816 12.31788,-3.74145 21.89551,-12.70829 26.43905,-24.753 4.15758,-11.02152 3.44986,-25.57341 -1.66849,-34.30721 -7.17861,-12.24938 -14.33893,-15.64666 -32.9236,-15.62088 -20.45309,0.0284 -38.31651,5.74793 -45.82632,14.67282 -5.81014,6.90496 -4.82202,10.24574 6.15965,20.82535 5.31667,5.12201 13.11667,11.89549 17.33334,15.05219 4.21666,3.15669 7.66666,6.26736 7.66666,6.91258 0,1.21747 -3.98637,1.61666 -12,1.20163 -4.9867,-0.25825 -17.66285,-4.37607 -28.84871,-9.37143 -9.03501,-4.03482 -11.46674,-3.09938 -10.33536,3.97587 0.84292,5.27141 0.7865,5.36707 -3.16658,5.36707 -2.21364,0 -6.64032,-1.18683 -9.83708,-2.63739 -7.36906,-3.34379 -13.26143,-3.38277 -19.53206,-0.1292 -7.71408,4.00248 -14.18872,10.01123 -13.29553,12.33883 0.81564,2.12552 9.96756,4.29874 24.34865,5.78184 11.332,1.16865 29.4185,4.45336 37.82276,6.86902 48.93179,14.06464 79.36671,50.78234 88.23001,106.44359 1.86169,11.69137 5.00773,21.96112 7.65852,25 1.3073,1.49869 3.98841,2.34381 7.49537,2.36261 6.63584,0.0356 16.05314,4.09626 18.01911,7.76971 4.12187,7.7018 -0.72683,25.62652 -7.89243,29.17683 -1.83333,0.90834 -6.71054,1.66038 -10.83824,1.6712 -7.07416,0.0185 -7.6,0.24924 -9.16176,4.01965 -0.91127,2.2 -2.13753,4 -2.72503,4 -0.58749,0 -1.73728,2.02745 -2.55509,4.50544 -0.81781,2.478 -2.66435,5.57099 -4.10341,6.87332 -1.43906,1.30233 -2.61647,2.95748 -2.61647,3.67809 0,3.7418 -23.88916,30.69275 -30,33.84499 -9.32211,4.80876 -24.66667,14.22079 -24.66667,15.13 0,0.54171 -2.85,1.70121 -6.33333,2.57668 -8.59672,2.16061 -10.99359,4.60865 -11.02928,11.2648 -0.0356,6.63584 -4.09625,16.05313 -7.76971,18.01911 -7.7018,4.12186 -25.62652,-0.72683 -29.17683,-7.89243 -0.90834,-1.83333 -1.66781,-6.63333 -1.6877,-10.66667 -0.0339,-6.858 -0.3298,-7.52349 -4.56654,-10.26706 -2.4917,-1.61356 -7.73428,-3.968 -11.65016,-5.23211 -19.66692,-6.34875 -43.57526,-28.35305 -53.23497,-48.99539 -5.91862,-12.64777 -8.2147,-28.09333 -7.64667,-51.43861 0.56493,-23.21819 0.96168,-24.19159 15.85963,-38.91041 16.62919,-16.42926 37.21251,-25.17303 59.18236,-25.14059 25.14641,0.0371 44.82463,11.03619 54.34578,30.37637 4.07682,8.28124 4.37089,9.7931 4.32705,22.24643 -0.0573,16.28404 -3.13647,25.27368 -12.05405,35.19219 -8.24563,9.17112 -16.07755,12.74557 -27.94645,12.75462 -21.84932,0.0167 -38.87672,-16.88324 -36.04386,-35.77401 0.49132,-3.2764 2.10644,-7.49931 3.58913,-9.38425 5.56831,-7.07896 16.97888,-2.73175 19.18416,7.3088 1.10893,5.04896 7.78633,10.59736 12.75375,10.59736 4.88938,0 8.64578,-3.67618 10.47034,-10.24676 5.9279,-21.3474 -8.53602,-38.09603 -35.53741,-41.1509 -10.48625,-1.18637 -14.7018,0.85732 -26.87203,13.02755 -13.71104,13.71104 -15.52465,18.07908 -15.37765,37.03677 0.17539,22.61756 5.18041,35.56448 18.48036,47.80466 13.06396,12.02298 29.61464,16.84525 57.40075,16.72449 15.49588,-0.0673 19.97456,-0.55697 26.36637,-2.88251 10.759,-3.91442 19.48594,-10.74742 28.10115,-22.00257 13.14577,-17.17397 18.20481,-32.07896 18.1898,-53.59087 -0.0211,-30.23038 -13.02649,-60.38354 -35.54644,-82.41481 -10.53021,-10.30171 -17.66063,-15.20668 -32.03988,-22.04005 -16.73199,-7.95146 -24.75472,-9.06152 -51.49108,-7.12458 -42.86586,3.10546 -48.40485,6.73926 -43.95607,28.83699 1.91899,9.53196 1.89679,10.27231 -0.38364,12.79215 -2.14631,2.37165 -3.48647,2.57957 -11.83036,1.83552 -5.17542,-0.46151 -11.95788,-1.76722 -15.07214,-2.90156 -8.28817,-3.01892 -21.69774,-1.75606 -31.00438,2.91989 -10.20567,5.12764 -28.21672,23.86277 -36.65363,38.12719 -7.62243,12.88734 -20.64467,44.13145 -20.66562,49.58273 -0.0179,4.65344 1.83164,4.69403 15.19025,0.33333 17.68245,-5.77213 33.38165,-3.61942 45.301,6.21178 9.64458,7.95496 14.38356,23.92516 9.05296,30.50818 -3.11632,3.8485 -9.0681,2.74296 -10.87927,-2.0208 -2.30381,-6.05949 -7.37472,-8.03316 -20.62039,-8.02576 -20.48349,0.012 -30.35664,6.96491 -41.25732,29.0567 -7.25745,14.70826 -8.63351,21.4818 -5.56824,27.40937 2.75936,5.336 8.30545,8.73245 27.43359,16.80043 32.60481,13.75225 56.08617,30.69522 76.47511,55.18058 15.33365,18.41443 29.39699,43.0008 33.89901,59.26439 3.42948,12.38897 3.27351,80.88097 -0.21885,96.10377 -11.16488,48.66655 -62.6309,103.00455 -111.75487,117.99135 -21.65583,6.6067 -55.54419,9.6096 -76.4004,6.7699 z"
			id="path3189-3" />
		<path style="fill:#ff0000;stroke-width:1.33333"
			d="m 529.94994,874.57089 c 15.24049,-5.7022 45.75005,-28.96636 50.80355,-38.73876 2.80836,-5.43074 2.34256,-10.19065 -1.35954,-13.89273 -2.8481,-2.84812 -4.47736,-3.27273 -12.55761,-3.27273 -11.90921,0 -13.00697,-0.4941 -15.96758,-7.18703 -4.91558,-11.11251 -16.4129,-16.55596 -20.72634,-9.81297 -2.35736,3.68513 -5.55422,23.88325 -7.43894,47 -0.77725,9.53333 -1.74026,19.88333 -2.14002,23 -0.84452,6.58418 -0.6281,6.65116 9.38648,2.90422 z"
			id="path3240" />
		<path style="fill:#ff0000;stroke-width:1.33333"
			d="m 487.79827,880.33333 c 2.47125,-4.7056 2.95288,-13.35606 1.57748,-28.33333 -3.48271,-37.92481 -10.59744,-56 -22.04267,-56 -6.02426,0 -11.89438,5.17115 -14.8002,13.03792 -3.47399,9.40496 -3.7976,9.62645 -13.68381,9.36541 -10.43576,-0.27554 -16.32383,2.24462 -20.23636,8.6614 -3.95408,6.4849 -3.35127,10.57436 2.3873,16.19547 10.88078,10.65805 57.30239,39.40647 63.63175,39.40647 1.0676,0 2.49254,-1.05 3.16651,-2.33334 z"
			id="path3236" />
		<path style="fill:#ff0000;stroke-width:1.33333"
			d="m 610.77989,950.60892 c 7.83928,-3.99931 15.8868,-11.72757 15.8868,-15.25656 0,-1.65221 -2.4,-6.01829 -5.33334,-9.7024 -2.93333,-3.68412 -5.33333,-7.33075 -5.33333,-8.10363 0,-0.77286 1.54361,-4.28697 3.43024,-7.80912 3.95241,-7.37872 3.66165,-13.91037 -0.95151,-21.37464 -4.21493,-6.81989 -9.17944,-8.82148 -17.56192,-7.08061 -15.5912,3.23797 -48.53145,18.97932 -58.66725,28.03565 -5.3943,4.8198 -4.90404,5.38574 14.86404,17.15887 14.26905,8.49812 47.02953,26.84991 47.93952,26.85479 0.21255,10e-4 2.78959,-1.22392 5.72675,-2.72235 z"
			id="path3232" />
		<path style="fill:#ff0000;stroke-width:1.33333"
			d="m 414.03281,941.89572 c 9.5153,-5.55736 23.19106,-13.41388 30.39058,-17.45893 7.19953,-4.04507 13.45487,-8.30536 13.90076,-9.46732 0.53479,-1.39364 -0.84352,-3.54264 -4.04969,-6.31415 -5.77273,-4.99013 -39.12009,-23.69525 -47.44209,-26.61111 -10.7443,-3.76457 -23.79176,-1.74981 -26.00412,4.01552 -2.81908,7.34643 0.70726,14.70219 10.52531,21.9552 4.02221,2.97139 7.31312,5.6268 7.31312,5.90092 0,0.27412 -4.13817,3.56615 -9.19595,7.31564 -5.05777,3.74948 -10.15777,8.28516 -11.33333,10.0793 -3.265,4.983 -2.69015,10.34376 1.52928,14.26129 9.77672,9.07723 13.14673,8.71672 34.36613,-3.67636 z"
			id="path3228" />
		<path style="fill:#ff0000;stroke-width:1.33333"
			d="m 471.97159,1026.6819 c 5.77039,-3.0882 9.34284,-23.5018 9.33615,-53.34857 -0.004,-19.25021 -0.94592,-26.61152 -3.53083,-27.60344 -3.56332,-1.36737 -59.09676,38.27352 -63.91098,45.62096 -3.09372,4.72159 -1.41629,11.66335 4.36458,18.06205 3.94342,4.3649 5.60525,5.2538 9.82236,5.2538 3.469,0 6.32996,-1.0553 9.03732,-3.3334 2.1788,-1.8333 4.31557,-3.3333 4.74841,-3.3333 0.43283,0 5.17172,4.5 10.53087,10 10.04883,10.3129 13.60852,11.8896 19.60212,8.6819 z"
			id="path3224" />
		<path style="fill:#ff0000;stroke-width:1.33333"
			d="m 546.1188,1030.0195 c 1.53202,-0.9899 4.47452,-5.1382 6.53893,-9.2184 4.16924,-8.2403 6.32784,-9.456 14.59096,-8.2168 10.52346,1.5781 19.418,-4.2408 19.418,-12.70341 0,-4.27718 -0.90208,-5.78326 -6.33334,-10.57385 -3.48333,-3.07244 -14.13333,-11.05907 -23.66666,-17.74805 -9.53334,-6.68898 -19.73334,-14.33836 -22.66667,-16.99864 -6.33772,-5.74774 -11.61091,-7.43903 -14.04592,-4.50502 -1.24402,1.49895 -1.46456,5.5916 -0.84358,15.65379 1.75963,28.51225 3.69015,47.19488 5.5475,53.68598 3.53441,12.3521 12.17048,16.6275 21.46078,10.6244 z"
			id="path3220" />
		<path style="fill:#00ffff;stroke-width:1.33333"
			d="m 420.22836,300.46001 c 2.769,-2.5059 3.22931,-8.46902 0.83832,-10.86001 -2.60727,-2.60727 -7.62061,-1.83393 -11.17896,1.72441 -2.87033,2.87034 -3.10797,3.7354 -1.73979,6.33334 2.90131,5.50908 7.82691,6.65165 12.08043,2.80226 z"
			id="path3266" />
		<path style="fill:#00ffff;stroke-width:1.33333"
			d="m 591.54285,303.19152 c 1.63486,-2.46664 1.55781,-3.18347 -0.63302,-5.88901 -3.02672,-3.73784 -6.47177,-2.84536 -7.68564,1.99105 -1.68037,6.69515 4.53454,9.60733 8.31866,3.89796 z"
			id="path3260" />
		<path style="fill:#ff0000;stroke-width:1.33333"
			d="m 560.71002,123 c 3.34528,-4.21667 9.11231,-13.96667 12.81561,-21.66667 3.70332,-7.699997 7.91762,-16.473087 9.36512,-19.495753 2.69706,-5.631965 6.85996,-8.504244 12.32552,-8.504244 4.50578,0 10.11708,-4.909153 10.11708,-8.851096 C 605.33335,57.078464 598.60923,52 588.80629,52 c -5.49314,0 -10.1396,4.933977 -10.1396,10.767016 0,5.432181 -5.60854,20.150764 -16.81895,44.138274 -5.41624,11.58943 -9.84772,21.67687 -9.84772,22.41653 0,3.06426 2.97888,0.90215 8.71,-6.32182 z"
			id="path3278" />
		<path style="fill:#ff0000;stroke-width:1.33333"
			d="M 451.62036,98.119079 C 443.212,81.186919 435.5844,64.933333 434.67016,62 c -2.74967,-8.822272 -3.22608,-9.307743 -9.54749,-9.729135 -4.44855,-0.296544 -6.83847,0.312868 -9.5301,2.430107 -6.31714,4.969065 -4.74297,8.194509 7.37458,15.110375 8.72565,4.980005 13.86472,12.296336 26.18502,37.278793 5.85235,11.86709 12.03727,23.0669 13.74425,24.88848 l 3.1036,3.31194 0.45414,-3.19287 c 0.29172,-2.05096 -5.01346,-14.20313 -14.8338,-33.978611 z"
			id="path3276" />
		<path style="fill:#000000;stroke-width:1.33333"
			d="m 478.00002,1087.9165 c -37.09779,-5.0512 -70.65947,-21.7306 -98.52377,-48.9642 -14.63052,-14.2994 -25.04672,-28.7716 -34.23456,-47.56507 -23.53101,-48.1321 -22.65847,-103.37875 2.42223,-153.3669 22.68012,-45.2036 60.16023,-76.13493 110.43787,-91.14141 22.3082,-6.65839 23.72251,-7.40799 22.57831,-11.96681 -1.48706,-5.92492 -9.41223,-21.9104 -13.82322,-27.88214 -5.73408,-7.76298 -18.07408,-17.18386 -26.80984,-20.46776 -4.00745,-1.50646 -11.80745,-3.14924 -17.33333,-3.65061 -9.7414,-0.88387 -10.05999,-1.02445 -10.47311,-4.62164 -0.62508,-5.44281 3.17069,-15.63481 8.00873,-21.5042 4.96027,-6.01767 15.68298,-11.42093 22.70132,-11.4394 2.72286,-0.007 8.04003,1.20469 11.81594,2.69301 5.27476,2.07912 7.29407,2.3502 8.71603,1.17008 2.12334,-1.76221 2.35186,-4.23957 0.69748,-7.56088 -0.6343,-1.27338 -2.79515,-5.91524 -4.8019,-10.31524 -10.41133,-22.82796 -29.65356,-43.32869 -54.71152,-58.28982 -15.33947,-9.1586 -28.58625,-13.71164 -47.33333,-16.26891 l -11.33334,-1.54597 0.001,-7.94766 c 10e-4,-6.10314 0.69751,-8.92373 3,-12.15346 3.4125,-4.78675 3.80823,-7.12751 1.205,-7.12751 -2.53248,0 -5.83352,-4.00413 -6.9332,-8.40989 -1.58977,-6.36932 -5.91941,-8.0366 -22.42612,-8.63599 -36.90568,-1.34011 -70.76724,14.31631 -99.05753,45.80076 -36.40191,40.51193 -43.67316,84.65275 -19.84826,120.49053 11.2487,16.92044 31.59331,32.83164 49.67239,38.84796 7.03887,2.34239 10.8822,2.78014 20.40966,2.32463 10.3256,-0.49368 12.99178,-1.18096 22.16088,-5.71256 34.37376,-16.98844 54.08833,-61.5974 41.77129,-94.51761 -8.39265,-22.43138 -36.43348,-35.86039 -53.72263,-25.72828 -7.32857,4.29482 -15.13413,12.89078 -18.39082,20.25306 -7.50704,16.97091 -2.38367,40.0993 8.6452,39.02703 l 4.17948,-0.40631 -0.46062,-11.40486 c -0.33858,-8.3834 0.1164,-12.78594 1.71752,-16.61787 4.67874,-11.19779 8.90015,-12.47653 17.80836,-5.39449 14.80154,11.76721 18.42794,24.05116 11.26807,38.16898 -6.3474,12.5158 -22.60812,21.38444 -35.44491,19.33175 -14.12416,-2.25855 -27.50355,-12.81759 -34.58936,-27.29801 -4.08468,-8.34738 -4.29907,-9.55016 -4.29907,-24.11883 0,-14.22696 0.27512,-15.87617 3.81283,-22.85665 10.75807,-21.22739 38.51787,-39.84736 59.32763,-39.79419 15.74895,0.0403 40.66017,11.32327 53.62543,24.28852 9.11807,9.11807 14.25067,27.55939 15.50125,55.69565 1.3068,29.40114 -2.90234,43.9945 -18.16983,62.9959 -13.79718,17.1715 -25.95509,27.24684 -43.33941,35.91561 -14.30776,7.13464 -18.09123,10.77443 -18.09123,17.40416 0,8.07884 -5.79864,16.50892 -14.40278,20.93884 -3.90652,2.01129 -14.35418,-1.17887 -19.51032,-5.95741 -3.11258,-2.88464 -3.45851,-4.10872 -3.17683,-11.24112 0.41014,-10.38586 -1.48075,-12.87831 -16.91007,-22.28968 -17.63087,-10.75423 -29.69159,-20.37882 -43.05963,-34.36204 -11.79196,-12.33459 -25.6995,-30.93351 -29.05088,-38.85046 -3.11516,-7.35894 -9.00517,-12.50584 -14.09257,-12.31458 -10.33182,0.38841 -22.94852,-10.18232 -21.6245,-18.11782 2.22227,-13.31918 6.38832,-18.1214 15.72082,-18.1214 4.77109,0 15.55561,-4.23514 17.78552,-6.98448 0.75041,-0.9252 2.32343,-4.53477 3.4956,-8.02126 9.26448,-27.55604 40.80284,-69.19882 65.09267,-85.94735 19.76226,-13.62665 46.60424,-24.62015 71.06631,-29.10617 18.05058,-3.31024 22.34293,-4.83448 24.49909,-8.69979 C 324.62788,472.3678 320.39592,464 313.79492,464 c -1.84136,0 -7.51407,1.82853 -12.60602,4.0634 -11.19846,4.91503 -28.82802,9.6138 -32.59808,8.68829 -1.50838,-0.37029 -3.60838,-2.6107 -4.66666,-4.97869 -2.45284,-5.48843 -6.11294,-6.47047 -23.3367,-6.26144 -25.22937,0.3062 -25.98439,-4.22024 -1.92079,-11.51545 10.43342,-3.16303 26.66667,-14.0264 26.66667,-17.84547 0,-4.3756 -25.21515,-14.60809 -42.94805,-17.42864 -20.38583,-3.24249 -39.20508,7.92809 -44.59556,26.47069 -3.62999,12.48671 -0.56399,20.89335 14.80408,40.59112 6.47732,8.30223 7.72805,13.51115 3.5617,14.8335 -5.05177,1.60337 -22.6202,-4.11032 -31.01217,-10.08594 -7.60029,-5.41188 -15.47484,-27.09453 -13.93956,-38.38269 1.00655,-7.4006 11.03336,-27.70664 18.81585,-38.1054 C 180.27409,400.34157 193.44219,392 204.81739,392 c 2.3883,0 5.95763,-0.61412 7.93184,-1.36472 3.20455,-1.21837 3.50748,-1.87017 2.82468,-6.07776 -1.05182,-6.48163 -13.64164,-24.97575 -23.22397,-34.11544 -8.899,-8.48793 -15.93429,-11.22703 -25.47687,-9.91907 -12.21192,1.67383 -20.58808,9.62591 -24.07016,22.85152 -2.99772,11.38587 -7.82217,12.89394 -11.68362,3.65216 -4.05381,-9.70213 -1.53168,-23.44082 5.83977,-31.81069 9.32864,-10.59213 26.0026,-17.88871 40.84807,-17.87523 11.43656,0.0107 16.69932,1.78236 27.8404,9.37396 5.3272,3.62999 10.37077,6.60416 11.20793,6.60928 1.87383,0.012 2.51207,-2.46393 5.13099,-19.90042 3.25386,-21.66383 9.80094,-35.62974 25.84828,-55.1382 12.81496,-15.57894 25.78439,-22.56198 46.21552,-24.88352 13.80679,-1.56884 21.52463,-0.33432 32.47836,5.1951 14.67427,7.40755 26.22422,21.71712 30.26739,37.4992 2.65037,10.34544 1.71719,17.86022 -3.58233,28.84787 -8.62885,17.8904 -24.55239,24.38196 -41.96334,17.1072 -4.89161,-2.04384 -7.31957,-7.5296 -4.97656,-11.24405 0.73321,-1.16238 3.89941,-2.55152 7.036,-3.08698 9.10284,-1.55397 13.66177,-5.16597 18.86137,-14.94366 2.22295,-4.18022 2.66819,-6.94379 2.22927,-13.83698 -0.50181,-7.88085 -0.95836,-8.98913 -5.36729,-13.02962 -6.30787,-5.78074 -13.81734,-7.91591 -27.72594,-7.88338 -9.66604,0.0227 -12.4817,0.57563 -18.88725,3.70958 -25.06717,12.26422 -42.94938,53.03418 -36.57127,83.37945 4.74399,22.57051 28.75714,62.8844 37.45738,62.8844 4.03508,0 12.53416,-9.32668 24.37009,-26.74316 22.61555,-33.27859 47.95815,-55.92351 62.58567,-55.92351 6.30027,0 9.73821,-3.93085 9.73821,-11.13437 0,-7.96697 -2.27972,-14.17085 -6.83728,-18.60657 -5.00132,-4.8676 -4.16013,-6.33963 9.06034,-15.85511 17.96036,-12.92703 22.53749,-14.68371 37.97558,-14.57483 10.95567,0.0773 15.49487,0.80171 25.89227,4.1323 6.9342,2.22122 13.81982,4.03858 15.30134,4.03858 3.70482,0 5.59294,5.18059 3.15865,8.66667 -4.86627,6.9688 -4.87171,7.17708 -0.26087,9.98797 2.40715,1.46747 4.9214,2.85208 5.58723,3.07694 0.66583,0.22485 0.80563,2.02228 0.31069,3.9943 -0.63869,2.54475 -2.79025,4.54339 -7.41238,6.88562 -7.91414,4.01038 -11.60223,8.44364 -12.76883,15.34865 -0.4891,2.89489 -3.20623,8.3644 -6.10744,12.29408 -8.97715,12.15951 -10.80544,17.12116 -9.46311,25.68116 4.76704,30.39907 -26.572,75.53009 -68.49715,98.64201 -11.04533,6.08892 -16.60571,10.96062 -16.60571,14.54902 0,1.49353 4.09733,6.66033 9.4939,11.97197 5.22164,5.13947 10.29968,11.27303 11.28455,13.63015 2.27664,5.44876 8.59696,10.7977 17.70629,14.98497 5.34031,2.45477 7.40503,2.87689 8.15288,1.66684 0.55081,-0.89124 1.30873,-6.54536 1.68427,-12.56472 0.78882,-12.64388 3.71312,-19.56208 10.95736,-25.9226 5.8976,-5.17816 10.89186,-6.62669 13.57988,-3.93868 1.0817,1.08172 2.88217,7.30951 4.00104,13.83953 3.07916,17.97102 5.44686,23.66218 25.46369,61.20612 24.66487,46.26191 32.76368,58.90706 35.2349,55.01427 3.46616,-5.46008 -2.13351,-85.94996 -7.66782,-110.21741 -2.37652,-10.42086 -8.69402,-19.67063 -25.72729,-37.66863 -6.69,-7.06891 -12.16364,-13.17236 -12.16364,-13.5632 0,-0.39085 9.34961,-0.90288 20.77693,-1.13784 18.94299,-0.38948 20.95367,-0.66257 22.77922,-3.09385 1.65297,-2.20146 1.89161,-6.38836 1.36792,-24 -0.77427,-26.03899 -3.07376,-36.07248 -14.26086,-62.22518 -4.3981,-10.28168 -7.99654,-18.93716 -7.99654,-19.2344 0,-1.19704 11.85586,-0.33181 20,1.45958 4.76666,1.04848 9.11666,1.9274 9.66666,1.95316 0.55,0.0257 1,-19.08196 1,-42.4616 v -42.50844 l -11,-4.70322 c -6.05,-2.58676 -17.19237,-6.61772 -24.76084,-8.95768 -16.53799,-5.1131 -28.07163,-13.1258 -45.97715,-31.94144 -19.01689,-19.98349 -24.83805,-30.4935 -34.73536,-62.71412 -7.81785,-25.451 -7.82377,-25.50674 -2.85998,-26.92692 2.2,-0.62944 19.16473,-0.74092 37.6994,-0.24774 32.71633,0.87054 33.67218,0.82296 32.76634,-1.63099 -2.81626,-7.62938 -18.50526,-27.508144 -33.01489,-41.831576 -6.29797,-6.217143 -11.45085,-11.745269 -11.45085,-12.284725 0,-0.539456 3.63114,-4.002703 8.06922,-7.696104 14.94778,-12.439663 22.18492,-8.572198 34.83982,18.618058 10.53123,22.62734 16.68309,34.126677 22.33437,41.748407 l 4.75659,6.41508 1.20757,-4.41508 c 9.95367,-36.391933 16.11462,-52.827085 24.89624,-66.413964 6.28718,-9.727476 9.17979,-10.264675 16.15983,-3.001109 10.76648,11.203813 21.97187,31.986846 30.55105,56.664163 2.48526,7.14863 4.86388,12.99863 5.28586,13 1.22125,0.004 19.56975,-38.772037 21.13471,-44.664163 0.77909,-2.933334 1.41989,-7.778746 1.42397,-10.767582 0.012,-8.328678 7.44437,-13.926184 18.42757,-13.877152 15.20788,0.06789 26.59728,19.066064 18.94958,31.608951 -1.56498,2.566685 -4.11375,4.624116 -6.32835,5.108377 -10.23556,2.238192 -16.22692,7.183548 -21.69984,17.91136 -6.02944,11.818669 -3.24031,12.955349 27.03885,11.019429 32.10947,-2.05295 35.0349,-1.28099 33.89514,8.94418 -0.45742,4.10364 -5.19962,15.06805 -14.72795,34.05244 -18.42911,36.71841 -30.48791,56.82141 -39.5576,65.94573 -14.57023,14.65796 -32.71031,23.83517 -52.65663,26.63943 -5.86667,0.82478 -11.94969,1.77517 -13.51785,2.11194 -2.78135,0.59734 -2.87123,1.35554 -3.66955,30.95762 -0.45011,16.6899 -1.14885,36.78816 -1.55277,44.66278 l -0.73442,14.31751 6.40396,-0.9782 c 3.52218,-0.53801 9.39202,-0.98089 13.04407,-0.98417 8.82216,-0.008 9.14457,2.21332 2.03032,13.9878 -6.54449,10.83152 -11.01327,23.105 -15.48675,42.5344 -3.39341,14.7384 -5.53704,38.55953 -4.01546,44.62197 1.14225,4.55111 3.3492,4.48771 16.83178,-0.48348 5.96672,-2.2 11.66162,-4 12.65532,-4 0.99371,0 3.65279,1.55333 5.90905,3.45185 6.27321,5.27856 5.5121,8.82682 -5.45286,25.42092 -16.74416,25.34022 -23.38365,43.26284 -26.34928,71.12723 -1.60649,15.09425 -4.51043,84.02957 -3.57903,84.96099 0.35772,0.3577 3.43698,-4.89802 6.84279,-11.6794 8.73113,-17.38472 18.72376,-33.03796 31.4601,-49.28159 21.60286,-27.55177 28.49492,-40.58907 32.50608,-61.48979 4.28341,-22.31932 4.76097,-23.84354 7.47032,-23.84354 4.78764,0 13.03352,9.24093 18.48533,20.71604 2.88472,6.07184 5.87149,11.42693 6.63725,11.9002 1.46543,0.90568 13.22659,-2.15442 21.83186,-5.68034 6.34914,-2.6015 11.07973,-8.11498 12.96279,-15.1081 1.80954,-6.72019 0.78776,-11.70242 -4.42878,-21.59444 -4.82451,-9.14866 -10.30701,-14.0303 -19.343,-17.22307 -4.72272,-1.66872 -9.99176,-5.53988 -18.70684,-13.74389 -23.58799,-22.20474 -34.87527,-46.06468 -32.77193,-69.27587 1.00858,-11.13001 0.58909,-12.17667 -9.34046,-23.30491 -6.84302,-7.66913 -9.03664,-11.51434 -10.65972,-18.68562 -0.5904,-2.60854 -3.35701,-4.61714 -12.72352,-9.23748 -6.583,-3.2473 -12.258,-6.65704 -12.61111,-7.57723 -0.58418,-1.52237 1.77203,-3.85437 9.20564,-9.11104 2.565,-1.81384 2.5804,-2.05452 0.40383,-6.31332 -1.24456,-2.43519 -2.83532,-6.63821 -3.53503,-9.34008 -1.04668,-4.04171 -0.8633,-5.28252 1.0345,-7 3.34681,-3.02883 9.4674,-2.56541 16.66537,1.26177 5.70566,3.03374 6.63516,3.17467 9.86526,1.49578 11.82106,-6.14423 18.17153,-6.92683 34.50305,-4.25198 9.67061,1.58391 15.64352,3.46316 22.99959,7.23636 12.79841,6.56478 13.52478,7.76482 8.6062,14.21846 -3.2457,4.25865 -3.86258,6.29469 -3.79294,12.51894 0.0957,8.5618 3.81527,16.91447 9.54631,21.43768 2.03713,1.60779 7.49487,4.64547 12.12831,6.75039 19.61987,8.91308 45.54345,35.41533 60.53708,61.8884 3.31544,5.85384 7.63475,11.84288 9.59845,13.309 3.5622,2.65956 3.58154,2.65961 8.46126,0.0233 9.31905,-5.03464 24.83617,-27.60497 29.77499,-43.30898 6.10486,-19.41182 1.5333,-58.78498 -9.38343,-80.81586 -7.10219,-14.33281 -19.23518,-26.08898 -30.22131,-29.28274 -13.35412,-3.88215 -23.74752,-0.23634 -31.73836,11.13322 -5.30169,7.5434 -5.76923,18.3213 -1.01448,23.38662 5.93493,6.32261 13.98923,5.51084 23.15371,-2.33362 13.0274,-11.15097 19.12838,-1.0714 10.07432,16.64398 -5.34255,10.45333 -9.37074,13.52528 -18.75603,14.30357 -15.19844,1.26037 -32.34273,-8.34151 -37.38221,-20.93639 -7.11248,-17.77584 -2.31411,-42.5496 10.6974,-55.23004 8.80916,-8.58504 17.73248,-12.0526 32.54698,-12.64762 19.70563,-0.79148 36.11731,5.0526 50.52055,17.98998 18.38267,16.51184 26.65295,41.79074 26.72484,81.68714 0.0107,5.55596 0.3941,11.50564 0.8535,13.22148 0.98441,3.67674 0.97977,3.67744 19.79497,-2.9628 24.0244,-8.47868 45.8748,-9.05728 58.67851,-1.5538 14.33833,8.40281 25.32952,29.13801 21.17884,39.95449 -1.30273,3.39489 -3.63397,2.48713 -9.54756,-3.71771 -3.05429,-3.20472 -7.69003,-6.84072 -10.30164,-8.08001 -18.00359,-8.54325 -47.94844,-3.08821 -61.88632,11.27381 -8.56819,8.82895 -7.20626,11.2104 7.2115,12.60995 11.9888,1.16376 21.73574,5.79885 28.60524,13.60301 10.76346,12.22794 16.06143,28.19962 16.06143,48.42 0,20.38011 -5.42781,36.09448 -16.18159,46.84826 -13.7551,13.7551 -37.52716,17.05661 -45.49374,6.31825 -4.0051,-5.39856 -1.5624,-8.32832 9.82837,-11.78816 12.31788,-3.74145 21.89551,-12.70829 26.43905,-24.753 4.15758,-11.02152 3.44986,-25.57341 -1.66849,-34.30721 -7.17861,-12.24938 -14.33893,-15.64666 -32.9236,-15.62088 -20.45309,0.0284 -38.31651,5.74793 -45.82632,14.67282 -5.81014,6.90496 -4.82202,10.24574 6.15965,20.82535 5.31667,5.12201 13.11667,11.89549 17.33334,15.05219 4.21666,3.15669 7.66666,6.26736 7.66666,6.91258 0,1.21747 -3.98637,1.61666 -12,1.20163 -4.9867,-0.25825 -17.66285,-4.37607 -28.84871,-9.37143 -9.03501,-4.03482 -11.46674,-3.09938 -10.33536,3.97587 0.84292,5.27141 0.7865,5.36707 -3.16658,5.36707 -2.21364,0 -6.64032,-1.18683 -9.83708,-2.63739 -7.36906,-3.34379 -13.26143,-3.38277 -19.53206,-0.1292 -7.71408,4.00248 -14.18872,10.01123 -13.29553,12.33883 0.81564,2.12552 9.96756,4.29874 24.34865,5.78184 11.332,1.16865 29.4185,4.45336 37.82276,6.86902 48.93179,14.06464 79.36671,50.78234 88.23001,106.44359 1.86169,11.69137 5.00773,21.96112 7.65852,25 1.3073,1.49869 3.98841,2.34381 7.49537,2.36261 6.63584,0.0356 16.05314,4.09626 18.01911,7.76971 4.12187,7.7018 -0.72683,25.62652 -7.89243,29.17683 -1.83333,0.90834 -6.71054,1.66038 -10.83824,1.6712 -7.07416,0.0185 -7.6,0.24924 -9.16176,4.01965 -0.91127,2.2 -2.13753,4 -2.72503,4 -0.58749,0 -1.73728,2.02745 -2.55509,4.50544 -0.81781,2.478 -2.66435,5.57099 -4.10341,6.87332 -1.43906,1.30233 -2.61647,2.95748 -2.61647,3.67809 0,3.7418 -23.88916,30.69275 -30,33.84499 -9.32211,4.80876 -24.66667,14.22079 -24.66667,15.13 0,0.54171 -2.85,1.70121 -6.33333,2.57668 -8.59672,2.16061 -10.99359,4.60865 -11.02928,11.2648 -0.0356,6.63584 -4.09625,16.05313 -7.76971,18.01911 -7.7018,4.12186 -25.62652,-0.72683 -29.17683,-7.89243 -0.90834,-1.83333 -1.66781,-6.63333 -1.6877,-10.66667 -0.0339,-6.858 -0.3298,-7.52349 -4.56654,-10.26706 -2.4917,-1.61356 -7.73428,-3.968 -11.65016,-5.23211 -19.66692,-6.34875 -43.57526,-28.35305 -53.23497,-48.99539 -5.91862,-12.64777 -8.2147,-28.09333 -7.64667,-51.43861 0.56493,-23.21819 0.96168,-24.19159 15.85963,-38.91041 16.62919,-16.42926 37.21251,-25.17303 59.18236,-25.14059 25.14641,0.0371 44.82463,11.03619 54.34578,30.37637 4.07682,8.28124 4.37089,9.7931 4.32705,22.24643 -0.0573,16.28404 -3.13647,25.27368 -12.05405,35.19219 -8.24563,9.17112 -16.07755,12.74557 -27.94645,12.75462 -21.84932,0.0167 -38.87672,-16.88324 -36.04386,-35.77401 0.49132,-3.2764 2.10644,-7.49931 3.58913,-9.38425 5.56831,-7.07896 16.97888,-2.73175 19.18416,7.3088 C 723.12418,642.4516 729.80158,648 734.769,648 c 4.88938,0 8.64578,-3.67618 10.47034,-10.24676 5.9279,-21.3474 -8.53602,-38.09603 -35.53741,-41.1509 -10.48625,-1.18637 -14.7018,0.85732 -26.87203,13.02755 -13.71104,13.71104 -15.52465,18.07908 -15.37765,37.03677 0.17539,22.61756 5.18041,35.56448 18.48036,47.80466 13.06396,12.02298 29.61464,16.84525 57.40075,16.72449 15.49588,-0.0673 19.97456,-0.55697 26.36637,-2.88251 10.759,-3.91442 19.48594,-10.74742 28.10115,-22.00257 13.14577,-17.17397 18.20481,-32.07896 18.1898,-53.59087 -0.0211,-30.23038 -13.02649,-60.38354 -35.54644,-82.41481 -10.53021,-10.30171 -17.66063,-15.20668 -32.03988,-22.04005 -16.73199,-7.95146 -24.75472,-9.06152 -51.49108,-7.12458 -42.86586,3.10546 -48.40485,6.73926 -43.95607,28.83699 1.91899,9.53196 1.89679,10.27231 -0.38364,12.79215 -2.14631,2.37165 -3.48647,2.57957 -11.83036,1.83552 -5.17542,-0.46151 -11.95788,-1.76722 -15.07214,-2.90156 -8.28817,-3.01892 -21.69774,-1.75606 -31.00438,2.91989 -10.20567,5.12764 -28.21672,23.86277 -36.65363,38.12719 -7.62243,12.88734 -20.64467,44.13145 -20.66562,49.58273 -0.0179,4.65344 1.83164,4.69403 15.19025,0.33333 17.68245,-5.77213 33.38165,-3.61942 45.301,6.21178 9.64458,7.95496 14.38356,23.92516 9.05296,30.50818 -3.11632,3.8485 -9.0681,2.74296 -10.87927,-2.0208 -2.30381,-6.05949 -7.37472,-8.03316 -20.62039,-8.02576 -20.48349,0.012 -30.35664,6.96491 -41.25732,29.0567 -7.25745,14.70826 -8.63351,21.4818 -5.56824,27.40937 2.75936,5.336 8.30545,8.73245 27.43359,16.80043 32.60481,13.75225 56.08617,30.69522 76.47511,55.18058 15.33365,18.41443 29.39699,43.0008 33.89901,59.26439 3.42948,12.38897 3.27351,80.88097 -0.21885,96.10377 -11.16488,48.6665 -62.6309,103.0045 -111.75487,117.9913 -21.65583,6.6067 -55.54419,9.6096 -76.4004,6.7699 z m 45.0713,-19.2358 c 48.86513,-7.3655 93.01614,-38.5349 114.25821,-80.66325 17.69959,-35.10273 22.17483,-79.75733 11.89441,-118.68412 -12.00191,-45.44516 -61.75299,-94.62114 -106.48091,-105.25005 -37.89405,-9.00493 -80.55411,-5.96737 -107.49446,7.65403 -31.87737,16.11761 -59.02512,43.5519 -74.63688,75.42466 -38.85664,79.32919 -3.044,175.33463 78.72166,211.03473 25.48541,11.1273 54.97515,14.8194 83.73797,10.484 z m 5.0895,-29.6278 c -5.89456,-2.9039 -7.65283,-7.4373 -10.05456,-25.9243 -2.41686,-18.60348 -6.46316,-74.70299 -5.872,-81.41164 l 0.43242,-4.90727 30.66667,22.81482 c 35.0064,26.04341 51.91966,41.70433 53.36612,49.41468 2.42758,12.94001 -6.68434,21.33091 -27.84466,25.64131 -2.09654,0.4271 -6.9189,3.715 -10.71638,7.3065 -3.79746,3.5915 -8.57119,7.1637 -10.60825,7.9382 -5.42452,2.0624 -14.21588,1.6665 -19.36936,-0.8723 z m 17.95798,-9.0334 c 1.53202,-0.9899 4.47452,-5.1382 6.53893,-9.2184 4.16924,-8.2403 6.32784,-9.456 14.59096,-8.2168 10.52346,1.5781 19.418,-4.2408 19.418,-12.70341 0,-4.27718 -0.90208,-5.78326 -6.33334,-10.57385 -3.48333,-3.07244 -14.13333,-11.05907 -23.66666,-17.74805 -9.53334,-6.68898 -19.73334,-14.33836 -22.66667,-16.99864 -6.33772,-5.74774 -11.61091,-7.43903 -14.04592,-4.50502 -1.24402,1.49895 -1.46456,5.5916 -0.84358,15.65379 1.75963,28.51225 3.69015,47.19488 5.5475,53.68598 3.53441,12.3521 12.17048,16.6275 21.46078,10.6244 z m -90.11878,5.8403 c -2.56667,-0.7586 -6.76667,-3.0401 -9.33334,-5.0698 -6.55453,-5.1835 -9.91908,-6.7889 -14.24568,-6.7974 -11.74405,-0.023 -19.75545,-5.6051 -25.86925,-18.024 -5.48104,-11.13356 -4.78598,-15.49705 3.88697,-24.40124 13.1916,-13.54329 74.20423,-56.12275 76.76102,-53.56991 1.98973,1.98666 2.72261,69.38226 0.92917,85.44575 -1.47795,13.2377 -3.38431,17.4138 -9.35995,20.5039 -5.11485,2.645 -16.93288,3.6378 -22.76894,1.9127 z m 15.97157,-9.1779 c 5.77039,-3.0882 9.34284,-23.5018 9.33615,-53.34857 -0.004,-19.25021 -0.94592,-26.61152 -3.53083,-27.60344 -3.56332,-1.36737 -59.09676,38.27352 -63.91098,45.62096 -3.09372,4.72159 -1.41629,11.66335 4.36458,18.06205 3.94342,4.3649 5.60525,5.2538 9.82236,5.2538 3.469,0 6.32996,-1.0553 9.03732,-3.3334 2.1788,-1.8333 4.31557,-3.3333 4.74841,-3.3333 0.43283,0 5.17172,4.5 10.53087,10 10.04883,10.3129 13.60852,11.8896 19.60212,8.6819 z m -91.9709,-66.8465 c -13.06098,-5.20813 -16.95646,-19.88551 -9.33401,-35.16873 4.70147,-9.42659 4.91308,-12.91811 1.33333,-22 -3.75117,-9.51682 -3.43901,-15.59339 1.1748,-22.86862 12.69598,-20.01948 24.7156,-17.52993 79.29605,16.42412 11.84104,7.36623 22.61253,14.42972 23.93665,15.69667 2.31012,2.21039 2.19979,2.49119 -2.72872,6.94379 -11.03765,9.97185 -58.02283,36.21837 -72.25411,40.36206 -8.11783,2.36366 -16.43345,2.6007 -21.42399,0.61071 z m 34.03212,-17.93968 c 9.5153,-5.55736 23.19106,-13.41388 30.39058,-17.45893 7.19953,-4.04507 13.45487,-8.30536 13.90076,-9.46732 0.53479,-1.39364 -0.84352,-3.54264 -4.04969,-6.31415 -5.77273,-4.99013 -39.12009,-23.69525 -47.44209,-26.61111 -10.7443,-3.76457 -23.79176,-1.74981 -26.00412,4.01552 -2.81908,7.34643 0.70726,14.70219 10.52531,21.9552 4.02221,2.97139 7.31312,5.6268 7.31312,5.90092 0,0.27412 -4.13817,3.56615 -9.19595,7.31564 -5.05777,3.74948 -10.15777,8.28516 -11.33333,10.0793 -3.265,4.983 -2.69015,10.34376 1.52928,14.26129 9.77672,9.07723 13.14673,8.71672 34.36613,-3.67636 z m 186.1931,16.09067 c -12.9666,-3.62452 -46.93284,-22.53814 -72.79661,-40.53576 l -6.53775,-4.54938 3.88756,-3.15282 c 5.90667,-4.79034 37.27654,-23.44746 52.75292,-31.37462 13.01059,-6.66414 14.28134,-7.03977 23.77332,-7.02724 8.47151,0.0107 11.07738,0.593 16.78879,3.74839 3.71844,2.05432 7.7966,5.48861 9.06259,7.63176 3.56516,6.03532 5.81444,20.78445 4.31716,28.30867 -1.01036,5.07726 -0.8266,7.29297 0.9062,10.92669 2.8329,5.94068 1.2079,23.27505 -2.66867,28.46729 -6.4156,8.59302 -16.5172,11.182 -29.48551,7.55702 z m 10.55398,-7.37747 c 7.83928,-3.99931 15.8868,-11.72757 15.8868,-15.25656 0,-1.65221 -2.4,-6.01829 -5.33334,-9.7024 -2.93333,-3.68412 -5.33333,-7.33075 -5.33333,-8.10363 0,-0.77286 1.54361,-4.28697 3.43024,-7.80912 3.95241,-7.37872 3.66165,-13.91037 -0.95151,-21.37464 -4.21493,-6.81989 -9.17944,-8.82148 -17.56192,-7.08061 -15.5912,3.23797 -48.53145,18.97932 -58.66725,28.03565 -5.3943,4.8198 -4.90404,5.38574 14.86404,17.15887 14.26905,8.49812 47.02953,26.84991 47.93952,26.85479 0.21255,10e-4 2.78959,-1.22392 5.72675,-2.72235 z M 479.33335,892.82153 c -13.42804,-8.30598 -44.27583,-29.6711 -55.10002,-38.16218 -5.09628,-3.99779 -10.68362,-9.33794 -12.4163,-11.86698 -8.77907,-12.81396 2.34744,-32.47449 19.22489,-33.97036 6.40131,-0.56736 9.44567,-2.12801 12.7244,-6.52298 0.97147,-1.30222 5.35261,-5.35222 9.73588,-9 7.08683,-5.89772 8.66344,-6.62994 14.23371,-6.61043 8.42352,0.0295 16.05052,4.47665 20.0206,11.67363 4.47455,8.11148 6.81833,30.81324 6.86859,66.52872 0.0228,16.25669 -0.3226,30.50669 -0.76774,31.66666 -1.2687,3.3062 -4.47044,2.4826 -14.52401,-3.73608 z m 8.46492,-12.4882 c 2.47125,-4.7056 2.95288,-13.35606 1.57748,-28.33333 -3.48271,-37.92481 -10.59744,-56 -22.04267,-56 -6.02426,0 -11.89438,5.17115 -14.8002,13.03792 -3.47399,9.40496 -3.7976,9.62645 -13.68381,9.36541 -10.43576,-0.27554 -16.32383,2.24462 -20.23636,8.6614 -3.95408,6.4849 -3.35127,10.57436 2.3873,16.19547 10.88078,10.65805 57.30239,39.40647 63.63175,39.40647 1.0676,0 2.49254,-1.05 3.16651,-2.33334 z M 515.10698,873 c 1.42128,-35.90819 5.3728,-65.97389 9.82718,-74.77171 2.80262,-5.53541 10.03786,-8.20005 16.9552,-6.24434 6.35703,1.79729 9.1552,3.94458 15.22393,11.68272 4.34226,5.53677 4.62648,5.66666 12.39832,5.66666 4.46008,0 9.65192,0.87794 11.81904,1.9986 5.17398,2.67558 10.08813,9.40732 11.93524,16.34975 2.50808,9.42671 -0.15744,13.01041 -21.7851,29.2894 -20.38696,15.34513 -53.46636,37.69559 -55.79071,37.69559 -1.00812,0 -1.1832,-6.5055 -0.5831,-21.66667 z m 14.84296,1.57089 c 15.24049,-5.7022 45.75005,-28.96636 50.80355,-38.73876 2.80836,-5.43074 2.34256,-10.19065 -1.35954,-13.89273 -2.8481,-2.84812 -4.47736,-3.27273 -12.55761,-3.27273 -11.90921,0 -13.00697,-0.4941 -15.96758,-7.18703 -4.91558,-11.11251 -16.4129,-16.55596 -20.72634,-9.81297 -2.35736,3.68513 -5.55422,23.88325 -7.43894,47 -0.77725,9.53333 -1.74026,19.88333 -2.14002,23 -0.84452,6.58418 -0.6281,6.65116 9.38648,2.90422 z M 274.06061,767.39393 c 6.66885,-6.66884 2.14117,-16.72726 -7.52957,-16.72726 -9.30267,0 -13.44238,10.43304 -6.97522,17.57917 3.23367,3.57316 10.50691,3.14599 14.50479,-0.85191 z m 470.54635,-2.88884 c 2.74241,-1.05236 6.05973,-7.39846 6.05973,-11.5924 0,-4.49144 -4.60915,-9.87509 -9.34496,-10.91525 -5.29713,-1.16344 -12.52648,1.35864 -14.50815,5.06141 -3.26409,6.09902 -1.7326,15.0531 2.893,16.91436 3.49858,1.40776 11.84176,1.70558 14.90038,0.53188 z M 511.80908,739.86676 c 2.91807,-1.01724 4.42927,-2.54913 4.93244,-5 0.39899,-1.94339 2.23011,-8.33035 4.06915,-14.19325 9.68183,-30.86586 25.21444,-47.47459 46.37063,-49.58322 5.32027,-0.53028 9.70053,0.2493 19.93241,3.5474 13.39414,4.31742 16.88631,4.44356 16.88631,0.60999 0,-7.54585 -13.90237,-16.33749 -27.65441,-17.48824 -16.15256,-1.3516 -30.58494,3.83872 -43.50283,15.64495 -8.79259,8.03592 -8.84376,7.9299 -5.481,-11.3536 2.45632,-14.08563 8.9369,-31.30883 18.8019,-49.96919 15.14159,-28.64137 29.32873,-45.31121 46.04641,-54.10437 8.47376,-4.45704 11.24034,-5.22595 20.57841,-5.71938 7.48032,-0.39525 13.06275,0.0911 18.20521,1.58604 19.25691,5.59815 18.80499,-0.31098 -0.75284,-9.84389 -11.80544,-5.75423 -13.01245,-8.87295 -5.32448,-13.75755 8.16684,-5.18884 10.2462,-8.26538 10.33636,-15.29337 0.0787,-6.13625 -0.012,-6.27952 -3.9194,-6.15788 -2.2,0.0685 -6.84938,1.24768 -10.33196,2.62041 -5.73849,2.26198 -6.52704,2.30083 -8.41338,0.41447 -1.14479,-1.14479 -3.19151,-6.39703 -4.54827,-11.67165 -1.35676,-5.27463 -3.47999,-11.1365 -4.71828,-13.02638 -1.98608,-3.03114 -2.48365,-3.20394 -4.22152,-1.46606 -1.08353,1.08353 -2.49217,6.12821 -3.13032,11.21041 -0.63815,5.08219 -2.40269,12.13884 -3.92123,15.68143 -3.93298,9.17526 -15.27554,26.14774 -26.80705,40.11284 -23.06186,27.92874 -30.87191,42.72765 -39.4019,74.6608 -6.39074,23.92457 -9.32586,27.91968 -13.47341,18.3392 -4.57979,-10.57894 -3.60039,-76.90034 1.75732,-119 2.7904,-21.9263 6.04939,-32.49175 17.25655,-55.94464 5.44621,-11.39712 10.28872,-22.67203 10.76116,-25.05536 0.77669,-3.91832 0.55568,-4.3306 -2.30771,-4.3048 -1.74167,0.0157 -7.34857,2.73736 -12.4598,6.04817 -10.46136,6.77635 -14.84761,8.3176 -17.13783,6.02193 -2.30282,-2.30832 -1.73628,-35.38189 0.8696,-50.7653 C 512.28546,395.7 515.7604,381 518.82746,370 c 3.06704,-11 5.87033,-21.76356 6.22953,-23.91901 l 0.65309,-3.919 -5.15882,4.25233 c -6.84952,5.64596 -9.35184,5.51009 -10.49242,-0.56968 -0.49754,-2.65212 -1.38954,-25.08844 -1.98224,-49.85849 -0.59269,-24.77006 -1.5512,-45.80272 -2.13001,-46.73927 -2.4,-3.88327 -3.45491,6.39616 -4.65564,45.36625 -1.26429,41.03264 -1.91589,49.44835 -4.15935,53.7202 -1.69826,3.23372 -3.30949,2.94451 -9.08652,-1.63097 -2.75293,-2.18037 -5.38928,-3.58037 -5.85853,-3.11111 -1.75393,1.75392 -0.73856,10.36107 3.00663,25.48674 4.70933,19.01954 6.40928,28.7769 8.14134,46.72994 2.29956,23.83518 1.21878,40.46378 -2.67812,41.20426 -1.09434,0.20794 -4.88657,-2.01946 -8.42718,-4.9498 -5.6757,-4.69742 -13.04579,-8.03246 -17.80063,-8.05495 -0.86429,-0.004 -2.51969,0.94083 -3.67869,2.09981 -1.92079,1.9208 -1.89972,2.46571 0.23809,6.15798 1.28995,2.22789 3.67317,4.93409 5.29605,6.01377 1.62288,1.07969 4.99724,5.05861 7.49858,8.84204 9.72428,14.70856 15.11396,37.46549 18.36566,77.54563 1.91331,23.58313 2.48426,99.8043 0.76055,101.53268 -1.90539,1.91054 -5.85601,-4.9877 -13.08456,-22.84711 C 475.96147,613.80851 462.45311,585.3 449.80571,560 c -25.77682,-51.56421 -29.8057,-61.82397 -29.8057,-75.90176 0,-5.18736 -0.53537,-9.43157 -1.18972,-9.43157 -0.65433,0 -4.55433,3.6342 -8.66666,8.076 -9.26936,10.01201 -9.53291,11.85262 -4.62719,32.31588 1.54601,6.44886 2.49984,12.0363 2.1196,12.41653 -0.38023,0.38023 -6.00388,-1.96263 -12.497,-5.20636 -15.72415,-7.85519 -20.54653,-9.34812 -24.87724,-7.70159 -3.71797,1.41358 -7.11588,5.80023 -7.82312,10.09954 -0.39983,2.43053 0.21071,2.63537 6.89467,2.31321 4.94025,-0.23812 9.07374,0.44831 12.66666,2.10347 l 5.33334,2.45694 -8.80126,0.82779 c -10.99137,1.03379 -19.045,4.18123 -21.91781,8.56568 -3.37913,5.15723 -0.4548,6.97995 14.56395,9.07761 14.89741,2.08071 19.82158,3.52194 30.82178,9.021 17.87435,8.93551 35.15695,23.30376 45.55115,37.86992 13.78827,19.32254 32.44886,56.3506 32.44886,64.38803 0,4.24332 -6.11236,3.44877 -21.6392,-2.81291 -17.02453,-6.86566 -25.18715,-7.37274 -32.22842,-2.00212 -5.55625,4.23796 -7.19464,8.36722 -4.4206,11.14126 1.09223,1.09224 6.95508,3.14296 13.02857,4.55716 13.9945,3.25862 21.65659,7.44526 31.00527,16.94158 9.29114,9.43787 15.82127,20.23996 20.21971,33.44727 3.85901,11.58759 6.38724,15.78465 10.51067,17.44867 4.04044,1.63052 10.4136,1.57048 15.33306,-0.14447 z M 286.12006,736.0132 c 16.02875,-4.03275 33.97574,-13.43164 42.99518,-22.51671 15.29174,-15.40301 26.46648,-41.90886 27.79737,-65.93386 1.27618,-23.03731 -4.11245,-43.1362 -15.18923,-56.65395 -10.12932,-12.36151 -29.92876,-21.57535 -46.36285,-21.57535 -9.93151,0 -16.60168,2.15326 -26.71944,8.6255 -22.98895,14.70585 -33.16464,37.63428 -26.69342,60.14701 7.60107,26.44331 29.67185,36.132 46.65259,20.47969 6.21732,-5.73093 14.06642,-19.14644 14.06642,-24.04202 0,-4.43403 -7.6545,-11.87684 -12.21464,-11.87684 -5.58976,0 -6.78054,3.6503 -6.24876,19.15537 l 0.4634,13.51129 -9.7424,0.39328 c -9.38019,0.37866 -9.8848,0.24082 -13.57306,-3.70748 -9.39518,-10.05757 -10.55614,-29.04866 -2.67925,-43.82722 14.66459,-27.51358 48.14677,-33.14628 71.29144,-11.99338 19.618,17.92976 23.1907,49.52908 8.93817,79.05539 -10.0999,20.92353 -23.84348,35.06032 -42.2349,43.44331 -27.54732,12.55632 -58.01943,7.09788 -81.0191,-14.51291 -15.91089,-14.95007 -27.63063,-36.21035 -32.42364,-58.81837 -2.42483,-11.43759 -2.38431,-34.72519 0.0765,-43.97216 7.95964,-29.9097 46.58091,-71.64968 82.98922,-89.69071 11.04216,-5.47161 11.98157,-5.69301 26.24785,-6.18617 8.1377,-0.28131 22.79315,0.23497 32.56768,1.14728 20.11988,1.8779 22.3505,1.28114 18.85654,-5.04466 -4.84612,-8.77388 -23.21535,-12.45982 -45.6263,-9.15532 -17.27076,2.54659 -40.51866,10.0349 -51.77016,16.67554 -23.30361,13.7538 -58.90283,49.95345 -70.99613,72.19358 -7.40627,13.62047 -9.45023,23.18948 -9.3985,44 0.0527,21.19379 2.67436,32.94519 11.23706,50.36883 10.08488,20.52101 36.52509,44.30147 64.06286,57.61841 10.2859,4.97415 11.85681,5.3461 22.57895,5.3461 7.0829,0 15.58831,-1.02258 22.07054,-2.65347 z m 486.65635,-9.1278 c 6.66035,-1.42211 13.90978,-3.51649 16.10983,-4.65419 11.34081,-5.86456 26.22143,-22.1145 33.28124,-36.34382 4.37959,-8.8272 4.77385,-10.69995 6.01907,-28.59007 1.53016,-21.9838 -0.0628,-52.25717 -3.5782,-68.00527 -6.80776,-30.49636 -31.67151,-62.89654 -59.20135,-77.14584 -18.0186,-9.32632 -43.89924,-15.09969 -68.74031,-15.33438 -15.40344,-0.14552 -19.22836,0.96241 -30.33333,8.78641 -8.21936,5.79093 -5.50312,6.37824 35.66666,7.71181 36.84082,1.19335 45.37312,2.36682 56.00001,7.70182 22.57718,11.33441 40.54196,29.18208 50.76266,50.4318 8.44579,17.55952 11.43104,32.42856 12.22379,60.88453 0.74125,26.60783 -0.37311,35.02544 -5.34017,40.33847 -1.37118,1.46666 -4.35606,6.15409 -6.6331,10.41652 -5.72285,10.71269 -21.12936,24.84302 -34.05844,31.23724 l -10.13608,5.0129 -21.6822,0.44703 c -34.61759,0.71372 -46.40097,-2.38093 -60.08429,-15.77987 -19.65976,-19.25113 -29.21336,-52.96097 -21.86548,-77.15224 2.32038,-7.63936 4.12005,-10.69468 9.42321,-15.99784 13.63312,-13.63312 33.41192,-22.41453 47.27556,-20.98946 21.35941,2.19558 36.73642,17.88834 36.76818,37.5232 0.0283,17.43584 -11.86574,29.00013 -26.53029,25.79497 -6.73065,-1.47108 -10.95341,-6.38924 -11.77964,-13.71947 -0.38358,-3.40314 -1.20544,-6.50152 -1.82634,-6.88525 -3.44208,-2.12732 -11.83612,7.77565 -11.84572,13.97512 -0.009,5.91165 5.99672,13.99808 13.38185,18.01759 5.50565,2.99654 8.62831,3.76622 15.27983,3.76622 15.6386,0 27.20448,-9.64 32.20547,-26.84281 2.91198,-10.01687 1.96261,-28.18033 -1.85859,-35.55895 -6.17371,-11.92118 -19.69758,-21.4381 -35.1838,-24.7593 -9.8055,-2.10291 -29.3484,-0.73627 -39.16308,2.73866 -14.99687,5.30974 -30.5591,18.14578 -36.55493,30.15126 -7.22316,14.46296 -7.26929,45.87324 -0.0955,64.98662 7.87939,20.99323 37.38863,46.53716 58.10945,50.30098 10.92003,1.98356 50.24617,0.46888 63.98399,-2.46439 z m 86.2389,-66.70068 c 1.68349,-1.68349 2.81236,-11.36705 1.79683,-15.41327 -0.93574,-3.72829 -6.87068,-7.43812 -11.89942,-7.43812 -4.49144,0 -9.87509,4.60915 -10.91525,9.34496 -2.27718,10.36794 6.01372,18.60348 15.91263,15.80642 2.15053,-0.60766 4.44788,-1.64266 5.10521,-2.29999 z M 149.66667,642.46209 c 5.24828,-6.20238 0.99198,-17.12876 -6.6724,-17.12876 -7.3688,0 -12.01254,4.77871 -11.22222,11.54838 1.02877,8.8121 12.20967,12.29884 17.89462,5.58038 z M 651.2213,516.57163 c 2.71268,-4.0856 8.15626,-10.93538 12.09682,-15.22172 9.41028,-10.23603 11.31033,-14.21824 11.7426,-24.61059 0.27286,-6.56005 1.07525,-9.56009 3.30761,-12.36689 8.06241,-10.13704 8.13371,-13.98483 0.29099,-15.70738 -5.9202,-1.3003 -21.30739,-12.78084 -30.33611,-22.63409 -8.89331,-9.70547 -18.65724,-27.11993 -22.33535,-39.83617 -1.53676,-5.31303 -2.10613,-11.14095 -1.78319,-18.25226 0.42759,-9.41585 0.86036,-10.84988 4.38434,-14.52812 7.49749,-7.8257 9.02184,-4.59541 3.23993,6.8658 -6.72929,13.33918 2.00068,40.65106 17.66263,55.25783 6.66477,6.21576 23.54273,17.98057 39.64281,27.63312 26.07979,15.63569 30.86564,17.22829 30.86564,10.27123 0,-8.9999 2.05224,-9.81663 12,-4.77572 6.94903,3.52134 9.33334,4.07605 9.33334,2.17144 0,-3.51191 -38.45484,-62.67763 -51.17206,-78.73212 -16.14412,-20.38072 -30.78125,-32.09932 -46.7178,-37.40267 -10.21325,-3.39875 -13.49464,-6.66585 -15.43773,-15.37052 -0.81842,-3.66637 -3.06459,-9.78595 -4.99147,-13.59905 -3.74904,-7.41894 -3.75477,-7.37136 2.02673,-16.80903 2.1763,-3.55253 2.17183,-3.83167 -0.0881,-5.51476 -1.30924,-0.97505 -7.30924,-2.9952 -13.33333,-4.48921 -23.99547,-5.95104 -32.73666,-5.51835 -41.09655,2.03432 l -5.26935,4.76054 -4.96017,-3.94749 c -9.21376,-7.33267 -13.36072,-6.63375 -8.38721,1.41357 3.46093,5.59991 3.4842,8.87184 0.0937,13.18214 -3.90455,4.96384 -3.38103,5.86453 3.97596,6.84046 7.22433,0.95835 9.35185,3.16383 9.36481,9.70806 0.0203,10.20546 8.93214,24.36246 16.53803,26.27142 4.72785,1.18662 5.90259,6.26642 6.50977,28.14956 0.63874,23.02015 2.77616,30.6636 11.74935,42.01552 9.81435,12.4161 28.85625,25.2577 40.61109,27.38759 10.15724,1.84041 19.07326,14.73752 23.52695,34.03197 2.02526,8.77386 0.56582,14.08908 -6.37885,23.23159 -8.17402,10.76092 -12.56378,19.59687 -12.56378,25.28901 0,2.59104 0.21506,4.71099 0.4779,4.71099 0.26284,0 2.69736,-3.34276 5.41005,-7.42837 z M 584.49779,312.46597 c -6.7478,-4.57918 -8.40433,-6.93718 -8.45537,-12.03586 -0.0608,-6.08064 5.0432,-9.76344 13.53135,-9.76344 12.66581,0 16.8351,9.85148 8.06924,19.0665 -5.98706,6.29383 -7.44968,6.5979 -13.14522,2.7328 z m 7.04506,-9.27445 c 1.63486,-2.46664 1.55781,-3.18347 -0.63302,-5.88901 -3.02672,-3.73784 -6.47177,-2.84536 -7.68564,1.99105 -1.68037,6.69515 4.53454,9.60733 8.31866,3.89796 z M 366.66668,503.93379 c 0,-4.25994 -4.5682,-9.19259 -12.24799,-13.22516 -12.73049,-6.68464 -13.08535,-7.14692 -13.08535,-17.04711 0,-14.68531 3.03294,-18.25476 25.33334,-29.8148 21.782,-11.29131 61.33333,-60.46844 61.33333,-76.26033 0,-2.47624 -1.2,-7.99011 -2.66666,-12.25306 -4.08543,-11.87449 -3.74902,-13.15664 5.94632,-22.66293 4.97226,-4.87532 8.96677,-10.04257 9.44996,-12.22439 1.91468,-8.64569 3.01405,-10.59936 7.69205,-13.6694 2.70141,-1.77286 4.91166,-3.87286 4.91163,-4.66666 -3e-5,-0.7938 -2.10003,-3.11886 -4.66667,-5.16679 -2.56664,-2.04793 -4.66663,-4.41937 -4.66663,-5.26985 0,-0.8505 1.95,-3.56918 4.33334,-6.0415 l 4.33333,-4.49514 -3.02121,-2.46591 c -3.86715,-3.15633 -21.89102,-9.17632 -30.54136,-10.20083 -5.0506,-0.59817 -8.0896,-0.1498 -12.55084,1.85178 -8.7216,3.91298 -22.55326,14.59941 -22.55326,17.42478 0,1.33028 1.8,3.74948 4,5.37602 4.63778,3.42885 4.96708,5.7589 1.50827,10.67166 -3.19497,4.538 -4.61353,9.14084 -4.42243,14.34959 0.22114,6.02708 -2.03986,8.23223 -12.23512,11.93291 -10.515,3.81673 -18.57162,9.02353 -28.66675,18.5266 -9.72941,9.15881 -17.4132,19.04218 -35.96046,46.25462 -8.67518,12.72816 -18.4244,27.01672 -21.66495,31.75236 -6.38895,9.33663 -11.02855,13.88926 -18.43813,18.0925 -5.15131,2.92217 -6.61512,6.29133 -4.06727,9.3613 2.31816,2.7932 4.96377,2.41547 13.75927,-1.96454 l 7.81242,-3.89046 -0.71905,3.56215 c -0.39548,1.95917 -1.12527,4.61213 -1.62175,5.89547 -1.49712,3.86984 4.03963,2.85749 19.97442,-3.65216 45.09626,-18.42264 66.27625,-44.83914 73.40411,-91.55244 0.95189,-6.23838 4.25298,-7.72507 6.15042,-2.76994 2.7945,7.29782 -3.86394,35.85222 -12.23473,52.46795 -4.97511,9.87545 -17.63885,25.68215 -27.60114,34.45129 -17.01937,14.98108 -17.75568,24.78664 -3.18466,42.4105 6.62594,8.01416 18.37199,16.31146 23.09125,16.31146 2.08063,0 3.78295,-0.6298 3.78295,-1.39954 z m 49.33333,-192.77548 c -5.35618,-1.83886 -8.31573,-4.02108 -10.71224,-7.89872 -5.08028,-8.22006 -2.08733,-18.17716 6.14718,-20.45083 10.67388,-2.9472 19.23173,4.0468 19.23173,15.71735 0,8.32328 -7.75707,15.00434 -14.66667,12.6322 z m 4.22835,-10.6983 c 2.769,-2.5059 3.22931,-8.46902 0.83832,-10.86001 -2.60727,-2.60727 -7.62061,-1.83393 -11.17896,1.72441 -2.87033,2.87034 -3.10797,3.7354 -1.73979,6.33334 2.90131,5.50908 7.82691,6.65165 12.08043,2.80226 z m 397.60907,200.90771 c 11.06937,-1.81277 16.61488,-5.14673 22.39693,-13.46503 9.39028,-13.50924 14.23624,-34.32653 11.71815,-50.33892 -2.96075,-18.82729 -13.27146,-33.1905 -29.20268,-40.68046 -9.39132,-4.41527 -20.11743,-5.31918 -37.21174,-3.13588 -5.89365,0.75273 -8.19577,0.6501 -7.585,-0.33815 0.48231,-0.7804 9.84555,-9.77524 20.8072,-19.98853 13.025,-12.13579 22.46859,-19.81151 27.2565,-22.15402 6.74761,-3.3013 8.2999,-3.53516 19.65473,-2.96108 6.9361,0.35068 14.95287,1.62518 18.32851,2.91386 10.87499,4.15158 10.94851,4.15604 10.45047,0.63329 -0.93772,-6.63249 -22.90905,-17.60072 -35.20731,-17.57572 -16.68742,0.034 -40.02776,12.10505 -52.58748,27.19709 l -6.65568,7.9976 v -20.6836 c 0,-36.23392 -4.51895,-63.27388 -13.86248,-82.9487 -8.17507,-17.21435 -19.41555,-26.02087 -39.1375,-30.66284 -11.80153,-2.77774 -28.39492,-1.90495 -35.73103,1.8794 -24.80876,12.79762 -29.51832,50.91082 -8.01392,64.85453 12.78567,8.29037 36.74492,0.40695 36.74492,-12.09037 0,-4.22263 -1.24116,-3.99144 -8.14569,1.51728 -13.31469,10.623 -23.83336,7.93752 -31.35108,-8.00414 -5.39076,-11.43134 -3.40041,-20.96502 6.00397,-28.7587 9.97916,-8.27003 33.3503,-11.04476 45.97836,-5.45878 9.64492,4.2664 19.72459,15.50487 26.80314,29.88454 9.11769,18.52204 11.7564,30.03393 11.84277,51.66628 0.1192,29.86956 -5.12556,44.74052 -22.80825,64.66981 -13.0771,14.73852 -16.32322,19.24391 -16.32322,22.65544 0,2.895 7.30742,12.67475 9.47056,12.67475 0.70202,0 5.24447,-3.36622 10.09431,-7.48047 10.73452,-9.10637 21.72608,-14.48832 33.72178,-16.51165 21.50132,-3.62667 44.1043,6.94313 52.78369,24.68316 3.31717,6.78006 3.52711,8.24405 3.00643,20.96566 -0.90959,22.22426 -6.65624,30.34014 -30.31628,42.81504 -6.6516,3.50711 -12.09382,6.63568 -12.09382,6.9524 0,1.01799 11.09446,0.59954 19.17074,-0.72309 z M 178.66667,486.62649 c 0,-0.75544 -1.62981,-5.10544 -3.62181,-9.66666 -2.92521,-6.69811 -3.63044,-10.34474 -3.66667,-18.95983 -0.0597,-14.21053 3.9425,-24.91627 13.03323,-34.86297 10.93356,-11.96307 18.5846,-14.5856 36.53597,-12.5234 13.88495,1.59505 26.71115,6.08672 37.59267,13.16473 4.69703,3.05524 9.65584,5.55497 11.01959,5.55497 2.91345,0 7.76155,-7.32392 7.76871,-11.73602 0.004,-2.2357 -1.11754,-3.46067 -4.1279,-4.5101 -5.14854,-1.79478 -13.3431,-12.69674 -21.52072,-28.63094 -8.45177,-16.4684 -12.6918,-29.10386 -14.50149,-43.21516 -4.60328,-35.8945 12.80174,-74.22372 39.69595,-87.4181 7.0749,-3.47097 9.08166,-3.82301 21.79248,-3.82301 12.31972,0 14.89398,0.41924 21.44864,3.49309 15.36349,7.2048 20.90245,17.29028 19.58769,35.66578 -0.60032,8.3903 -2.26007,12.96066 -7.20536,19.84113 -2.04239,2.8416 -2.00929,3 0.62667,3 7.98088,0 17.90448,-16.18124 17.98949,-29.33333 0.15756,-24.37408 -31.94741,-48.89914 -57.63508,-44.02758 -23.03957,4.36938 -48.74055,30.8246 -59.07598,60.80974 -3.21648,9.33164 -4.11738,14.81796 -5.17354,31.5056 -0.70338,11.11349 -1.56515,20.49262 -1.91506,20.84254 -1.37454,1.37454 -7.1097,-2.52489 -17.21322,-11.70358 C 194.92498,326.30657 194.17739,326 175.73334,326 c -10.97045,0 -16.11109,0.51109 -17.32219,1.72219 -2.62024,2.62024 0.27746,3.79373 11.45534,4.6391 5.30044,0.40088 11.82337,1.64232 14.49541,2.75878 10.31845,4.31132 19.66151,16.88542 37.55808,50.5466 L 229.54055,400 h -11.1568 c -27.39058,0 -41.89164,10.06828 -53.02744,36.81765 -9.11741,21.90103 -8.43996,30.25947 3.49759,43.15346 7.1804,7.75569 9.81277,9.54106 9.81277,6.65538 z M 688.70469,473.30985 C 695.33736,469.21063 700.26445,460 695.82458,460 c -2.33094,0 -13.15789,11.37551 -13.15789,13.82456 0,2.80727 0.769,2.74171 6.038,-0.51471 z M 545.1575,230.70755 c 17.52108,-3.57696 24.4908,-7.14434 33.97725,-17.39083 20.00912,-21.61224 52.5483,-81.94337 51.27647,-95.07209 L 630.00002,114 619.34335,113.60476 c -23.84213,-0.88427 -43.5042,7.40277 -64.68406,27.26261 -7.31201,6.85628 -13.90161,12.46596 -14.64358,12.46596 -0.74196,0 -1.34903,-2.04037 -1.34903,-4.53417 0,-2.49379 -1.16732,-11.34379 -2.59404,-19.66666 -4.9263,-28.73796 -17.15145,-64.803679 -25.25781,-74.513803 -3.44004,-4.120604 -4.10639,-4.399096 -7.1776,-2.99976 -10.16827,4.632975 -19.74251,41.552314 -24.38429,94.028543 -0.50096,5.66341 -1.67738,10.07124 -3.1848,11.93283 -2.29639,2.83592 -2.52603,2.86317 -5.83822,0.69294 -1.89628,-1.24249 -6.69412,-6.64877 -10.66185,-12.01394 -11.2439,-15.20401 -23.55166,-23.36523 -40.72663,-27.00564 -9.75661,-2.06802 -34.45744,-2.54506 -37.33681,-0.72108 -1.48584,0.94123 -0.65047,4.69382 4.45537,20.01402 10.83404,32.50783 22.74416,53.4479 38.41159,67.53426 13.74949,12.36197 39.61924,24.92364 56.19429,27.28645 13.76314,1.96196 49.07559,0.50785 64.59162,-2.65977 z M 451.62036,98.119079 C 443.212,81.186919 435.5844,64.933333 434.67016,62 c -2.74967,-8.822272 -3.22608,-9.307743 -9.54749,-9.729135 -4.44855,-0.296544 -6.83847,0.312868 -9.5301,2.430107 -6.31714,4.969065 -4.74297,8.194509 7.37458,15.110375 8.72565,4.980005 13.86472,12.296336 26.18502,37.278793 5.85235,11.86709 12.03727,23.0669 13.74425,24.88848 l 3.1036,3.31194 0.45414,-3.19287 c 0.29172,-2.05096 -5.01346,-14.20313 -14.8338,-33.978611 z M 560.71002,123 c 3.34528,-4.21667 9.11231,-13.96667 12.81561,-21.66667 3.70332,-7.699997 7.91762,-16.473087 9.36512,-19.495753 2.69706,-5.631965 6.85996,-8.504244 12.32552,-8.504244 4.50578,0 10.11708,-4.909153 10.11708,-8.851096 C 605.33335,57.078464 598.60923,52 588.80629,52 c -5.49314,0 -10.1396,4.933977 -10.1396,10.767016 0,5.432181 -5.60854,20.150764 -16.81895,44.138274 -5.41624,11.58943 -9.84772,21.67687 -9.84772,22.41653 0,3.06426 2.97888,0.90215 8.71,-6.32182 z"
			id="path3189" />
	</g>
</svg>